G04 #@! TF.GenerationSoftware,KiCad,Pcbnew,(2018-02-16 revision c95340fba)-makepkg*
G04 #@! TF.CreationDate,2018-05-26T17:23:00+02:00*
G04 #@! TF.ProjectId,lin_bb,6C696E5F62622E6B696361645F706362,rev?*
G04 #@! TF.SameCoordinates,PX7d54dd0PY6718300*
G04 #@! TF.FileFunction,Copper,L1,Top,Signal*
G04 #@! TF.FilePolarity,Positive*
%FSLAX46Y46*%
G04 Gerber Fmt 4.6, Leading zero omitted, Abs format (unit mm)*
G04 Created by KiCad (PCBNEW (2018-02-16 revision c95340fba)-makepkg) date 05/26/18 17:23:00*
%MOMM*%
%LPD*%
G01*
G04 APERTURE LIST*
%ADD10R,1.000000X1.250000*%
%ADD11R,1.250000X1.000000*%
%ADD12R,0.800000X0.750000*%
%ADD13O,1.700000X1.700000*%
%ADD14R,1.700000X1.700000*%
%ADD15O,3.960000X1.980000*%
%ADD16R,3.960000X1.980000*%
%ADD17R,0.900000X0.500000*%
%ADD18R,1.550000X0.600000*%
%ADD19R,0.800000X0.900000*%
%ADD20C,2.540000*%
%ADD21R,1.450000X0.450000*%
%ADD22R,0.500000X0.900000*%
%ADD23C,0.800000*%
%ADD24C,0.250000*%
%ADD25C,0.500000*%
%ADD26C,1.000000*%
%ADD27C,0.254000*%
G04 APERTURE END LIST*
D10*
X22926800Y-1879600D03*
X24926800Y-1879600D03*
D11*
X16344900Y-12881100D03*
X16344900Y-14881100D03*
D12*
X7252400Y-5181600D03*
X5752400Y-5181600D03*
D13*
X35458400Y-13563600D03*
X35458400Y-11023600D03*
X35458400Y-8483600D03*
X35458400Y-5943600D03*
D14*
X35458400Y-3403600D03*
D15*
X6502400Y-12768600D03*
X6502400Y-7768600D03*
D16*
X6502400Y-2768600D03*
D17*
X19761200Y-4431600D03*
X19761200Y-5931600D03*
D18*
X15933400Y-2133600D03*
X15933400Y-3403600D03*
X15933400Y-4673600D03*
X15933400Y-5943600D03*
X10533400Y-5943600D03*
X10533400Y-4673600D03*
X10533400Y-3403600D03*
X10533400Y-2133600D03*
D15*
X41554400Y-3563600D03*
X41554400Y-8563600D03*
D16*
X41554400Y-13563600D03*
D12*
X28322400Y-1879600D03*
X26822400Y-1879600D03*
D19*
X11328400Y-10785600D03*
X12278400Y-12785600D03*
X10378400Y-12785600D03*
D20*
X31116400Y-14229600D03*
X16916400Y-8229600D03*
X31116400Y-2229600D03*
X18916400Y-14229600D03*
X18916400Y-2229600D03*
D19*
X20015200Y-9312400D03*
X20965200Y-11312400D03*
X19065200Y-11312400D03*
D21*
X28565900Y-4374600D03*
X28565900Y-5024600D03*
X28565900Y-5674600D03*
X28565900Y-6324600D03*
X28565900Y-6974600D03*
X28565900Y-7624600D03*
X28565900Y-8274600D03*
X22665900Y-8274600D03*
X22665900Y-7624600D03*
X22665900Y-6974600D03*
X22665900Y-6324600D03*
X22665900Y-5674600D03*
X22665900Y-5024600D03*
X22665900Y-4374600D03*
D22*
X26251600Y-10820400D03*
X24751600Y-10820400D03*
D19*
X23977600Y-14919200D03*
X23027600Y-12919200D03*
X24927600Y-12919200D03*
D23*
X22961600Y-11120750D03*
X41490900Y-11023600D03*
X41427400Y-6070600D03*
X21615400Y-2260600D03*
X14376400Y-8229600D03*
X13614400Y-14579600D03*
X26060400Y-4419600D03*
X27330400Y-14579600D03*
X21132800Y-5906610D03*
X12090400Y-3403600D03*
X17605709Y-5702592D03*
D24*
X9508400Y-5943600D02*
X10533400Y-5943600D01*
X8664400Y-5943600D02*
X9508400Y-5943600D01*
X7902400Y-5181600D02*
X8664400Y-5943600D01*
X7252400Y-5181600D02*
X7902400Y-5181600D01*
X7252400Y-7018600D02*
X6502400Y-7768600D01*
X7252400Y-5181600D02*
X7252400Y-7018600D01*
X28565900Y-5024600D02*
X34539400Y-5024600D01*
X34539400Y-5024600D02*
X35458400Y-5943600D01*
X35204400Y-5689600D02*
X35458400Y-5943600D01*
X25169400Y-863600D02*
X27281400Y-863600D01*
X24778400Y-1254600D02*
X25169400Y-863600D01*
X27281400Y-863600D02*
X28297400Y-1879600D01*
X28297400Y-1879600D02*
X28322400Y-1879600D01*
X5752400Y-5181600D02*
X5752400Y-3518600D01*
X10533400Y-4673600D02*
X8407400Y-4673600D01*
X8407400Y-4673600D02*
X6502400Y-2768600D01*
X24158399Y-634599D02*
X9626401Y-634599D01*
X24483401Y-959601D02*
X24158399Y-634599D01*
X9626401Y-634599D02*
X7492400Y-2768600D01*
X21650000Y-11277600D02*
X22804750Y-11277600D01*
X22804750Y-11277600D02*
X22961600Y-11120750D01*
X20965200Y-11312400D02*
X21615200Y-11312400D01*
X21615200Y-11312400D02*
X21650000Y-11277600D01*
X20965200Y-11362400D02*
X20965200Y-11312400D01*
D25*
X7492400Y-2768600D02*
X6502400Y-2768600D01*
X9143400Y-1117600D02*
X7492400Y-2768600D01*
X16344900Y-14631100D02*
X13665900Y-14631100D01*
X13665900Y-14631100D02*
X13614400Y-14579600D01*
D24*
X27330400Y-4419600D02*
X26060400Y-4419600D01*
X31203900Y-4419600D02*
X30014400Y-4419600D01*
X34188400Y-1435100D02*
X31203900Y-4419600D01*
X36791900Y-1435100D02*
X34188400Y-1435100D01*
X38061900Y-2705100D02*
X36791900Y-1435100D01*
X35458400Y-8483600D02*
X38061900Y-5880100D01*
X38061900Y-5880100D02*
X38061900Y-2705100D01*
X30014400Y-4419600D02*
X29014400Y-4419600D01*
D26*
X6502400Y-2768600D02*
X7645400Y-2768600D01*
D24*
X27330400Y-4419600D02*
X29014400Y-4419600D01*
X5752400Y-3518600D02*
X6502400Y-2768600D01*
X24778400Y-1879600D02*
X24778400Y-1254600D01*
X24778400Y-1254600D02*
X24483401Y-959601D01*
X28322400Y-1879600D02*
X28322400Y-3727600D01*
X28322400Y-3727600D02*
X29014400Y-4419600D01*
X23288000Y-14229600D02*
X23298400Y-14219200D01*
X18916400Y-14229600D02*
X23288000Y-14229600D01*
X23298400Y-14219200D02*
X23327600Y-14219200D01*
X23327600Y-14219200D02*
X23977600Y-14869200D01*
X23977600Y-14869200D02*
X23977600Y-14919200D01*
X16344900Y-13131100D02*
X17817900Y-13131100D01*
X17817900Y-13131100D02*
X18916400Y-14229600D01*
D25*
X16599658Y-11662842D02*
X16551638Y-11662842D01*
X15674396Y-10785600D02*
X12228400Y-10785600D01*
X16551638Y-11662842D02*
X15674396Y-10785600D01*
X16551638Y-12531362D02*
X16551638Y-11662842D01*
X16408400Y-12674600D02*
X16551638Y-12531362D01*
X16344900Y-13131100D02*
X16408400Y-13067600D01*
X12228400Y-10785600D02*
X11328400Y-10785600D01*
X16408400Y-13067600D02*
X16408400Y-12674600D01*
D24*
X11893404Y-2133600D02*
X12852400Y-3092596D01*
X10533400Y-2133600D02*
X11893404Y-2133600D01*
X12852400Y-3092596D02*
X12852400Y-9211600D01*
X11328400Y-10735600D02*
X11328400Y-10785600D01*
X12852400Y-9211600D02*
X11328400Y-10735600D01*
X26822400Y-2336800D02*
X25289600Y-3869600D01*
X26822400Y-1879600D02*
X26822400Y-2336800D01*
X25289600Y-3869600D02*
X24614400Y-3869600D01*
X24614400Y-3869600D02*
X24064400Y-4419600D01*
X18643600Y-4368800D02*
X18655600Y-4380800D01*
X18655600Y-4380800D02*
X19710400Y-4380800D01*
X18542759Y-4267959D02*
X18643600Y-4368800D01*
X18643600Y-4368800D02*
X22660100Y-4368800D01*
X22660100Y-4368800D02*
X22665900Y-4374600D01*
X19456400Y-4368100D02*
X19356259Y-4267959D01*
X16408400Y-2133600D02*
X18542759Y-4267959D01*
X15933400Y-2133600D02*
X16408400Y-2133600D01*
X29056900Y-10781600D02*
X27249399Y-8974099D01*
X32410400Y-10781600D02*
X29056900Y-10781600D01*
X27249399Y-8974099D02*
X27249399Y-7604599D01*
X27249399Y-7604599D02*
X24859411Y-5214611D01*
X24859411Y-5214611D02*
X24064400Y-4419600D01*
X23614400Y-4419600D02*
X22710900Y-4419600D01*
X22710900Y-4419600D02*
X22665900Y-4374600D01*
X24064400Y-4419600D02*
X23614400Y-4419600D01*
X23278400Y-1879600D02*
X23278400Y-4083600D01*
X23278400Y-4083600D02*
X23614400Y-4419600D01*
X35458400Y-11023600D02*
X32652400Y-11023600D01*
X32652400Y-11023600D02*
X32410400Y-10781600D01*
D26*
X6502400Y-12768600D02*
X10361400Y-12768600D01*
X10361400Y-12768600D02*
X10378400Y-12785600D01*
D24*
X23640900Y-6324600D02*
X29609900Y-12293600D01*
X22665900Y-6324600D02*
X23640900Y-6324600D01*
X29609900Y-12293600D02*
X32398400Y-12293600D01*
X32398400Y-12293600D02*
X32410400Y-12281600D01*
X32410400Y-12281600D02*
X34176400Y-12281600D01*
X34176400Y-12281600D02*
X35458400Y-13563600D01*
X19761200Y-5931600D02*
X19761200Y-6016520D01*
X19761200Y-6016520D02*
X19376920Y-6400800D01*
X22665900Y-7624600D02*
X20600720Y-7624600D01*
X19376920Y-6400800D02*
X17953711Y-4977591D01*
X20600720Y-7624600D02*
X19376920Y-6400800D01*
X17257708Y-4977591D02*
X17953711Y-4977591D01*
X17953711Y-4977591D02*
X17953710Y-4977591D01*
X16291699Y-5943600D02*
X17257708Y-4977591D01*
X15933400Y-5943600D02*
X16291699Y-5943600D01*
X19065200Y-11262400D02*
X19790201Y-10537399D01*
X19065200Y-11312400D02*
X19065200Y-11262400D01*
X19790201Y-10537399D02*
X20246601Y-10537399D01*
X20246601Y-10537399D02*
X22106650Y-8677350D01*
X23825200Y-10515600D02*
X23946800Y-10515600D01*
X23946800Y-10515600D02*
X24251600Y-10820400D01*
X23825200Y-10395900D02*
X23825200Y-10515600D01*
X22106650Y-8677350D02*
X23825200Y-10395900D01*
X22337650Y-8446350D02*
X22106650Y-8677350D01*
X22665900Y-8274600D02*
X22165900Y-8274600D01*
X22165900Y-8274600D02*
X22337650Y-8446350D01*
X24251600Y-10820400D02*
X24751600Y-10820400D01*
X16408400Y-4673600D02*
X16958400Y-4123600D01*
X15933400Y-4673600D02*
X16408400Y-4673600D01*
X17761990Y-4123600D02*
X18819990Y-5181600D01*
X16958400Y-4123600D02*
X17761990Y-4123600D01*
X18819990Y-5181600D02*
X21533900Y-5181600D01*
X21533900Y-5181600D02*
X21690900Y-5024600D01*
X21690900Y-5024600D02*
X22665900Y-5024600D01*
X22665900Y-6974600D02*
X21690900Y-6974600D01*
X21132800Y-6416500D02*
X21132800Y-5906610D01*
X21690900Y-6974600D02*
X21132800Y-6416500D01*
X10533400Y-3403600D02*
X12090400Y-3403600D01*
X22694900Y-6959600D02*
X22609901Y-6874601D01*
X36022401Y-7118601D02*
X30984901Y-7118601D01*
X30984901Y-7118601D02*
X29540900Y-5674600D01*
X29540900Y-5674600D02*
X28565900Y-5674600D01*
X37363400Y-5777602D02*
X37363400Y-4208600D01*
X37363400Y-4208600D02*
X36558400Y-3403600D01*
X36558400Y-3403600D02*
X35458400Y-3403600D01*
X36022401Y-7118601D02*
X37363400Y-5777602D01*
X19365200Y-9312400D02*
X19365200Y-7462083D01*
X18005708Y-6102591D02*
X17605709Y-5702592D01*
X19365200Y-7462083D02*
X18005708Y-6102591D01*
X17729200Y-11213398D02*
X17729200Y-10948400D01*
X17729200Y-10948400D02*
X19365200Y-9312400D01*
X17729200Y-12039600D02*
X17729200Y-11213398D01*
X18084800Y-12395200D02*
X17729200Y-12039600D01*
X20523200Y-12395200D02*
X18084800Y-12395200D01*
X21822201Y-13694201D02*
X20523200Y-12395200D01*
X24927600Y-12969200D02*
X24202599Y-13694201D01*
X24927600Y-12919200D02*
X24927600Y-12969200D01*
X24202599Y-13694201D02*
X21822201Y-13694201D01*
X20015200Y-9312400D02*
X19365200Y-9312400D01*
D27*
G36*
X15440979Y-11803761D02*
X15262091Y-11923291D01*
X15121743Y-12133335D01*
X15072460Y-12381100D01*
X15072460Y-13381100D01*
X15121743Y-13628865D01*
X15262091Y-13838909D01*
X15323220Y-13879754D01*
X15181573Y-14021402D01*
X15084900Y-14254791D01*
X15084900Y-14595350D01*
X15243650Y-14754100D01*
X16217900Y-14754100D01*
X16217900Y-14734100D01*
X16471900Y-14734100D01*
X16471900Y-14754100D01*
X16491900Y-14754100D01*
X16491900Y-15008100D01*
X16471900Y-15008100D01*
X16471900Y-15028100D01*
X16217900Y-15028100D01*
X16217900Y-15008100D01*
X15243650Y-15008100D01*
X15084900Y-15166850D01*
X15084900Y-15507409D01*
X15132614Y-15622600D01*
X4443400Y-15622600D01*
X4443400Y-14008687D01*
X4878357Y-14299316D01*
X5352355Y-14393600D01*
X7652445Y-14393600D01*
X8126443Y-14299316D01*
X8663959Y-13940159D01*
X8688387Y-13903600D01*
X10181152Y-13903600D01*
X10378400Y-13942835D01*
X10679010Y-13883040D01*
X10778400Y-13883040D01*
X11026165Y-13833757D01*
X11236209Y-13693409D01*
X11328400Y-13555436D01*
X11420591Y-13693409D01*
X11630635Y-13833757D01*
X11878400Y-13883040D01*
X12678400Y-13883040D01*
X12926165Y-13833757D01*
X13136209Y-13693409D01*
X13276557Y-13483365D01*
X13325840Y-13235600D01*
X13325840Y-12335600D01*
X13276557Y-12087835D01*
X13136209Y-11877791D01*
X12926165Y-11737443D01*
X12678400Y-11688160D01*
X12189716Y-11688160D01*
X12201450Y-11670600D01*
X15307818Y-11670600D01*
X15440979Y-11803761D01*
X15440979Y-11803761D01*
G37*
X15440979Y-11803761D02*
X15262091Y-11923291D01*
X15121743Y-12133335D01*
X15072460Y-12381100D01*
X15072460Y-13381100D01*
X15121743Y-13628865D01*
X15262091Y-13838909D01*
X15323220Y-13879754D01*
X15181573Y-14021402D01*
X15084900Y-14254791D01*
X15084900Y-14595350D01*
X15243650Y-14754100D01*
X16217900Y-14754100D01*
X16217900Y-14734100D01*
X16471900Y-14734100D01*
X16471900Y-14754100D01*
X16491900Y-14754100D01*
X16491900Y-15008100D01*
X16471900Y-15008100D01*
X16471900Y-15028100D01*
X16217900Y-15028100D01*
X16217900Y-15008100D01*
X15243650Y-15008100D01*
X15084900Y-15166850D01*
X15084900Y-15507409D01*
X15132614Y-15622600D01*
X4443400Y-15622600D01*
X4443400Y-14008687D01*
X4878357Y-14299316D01*
X5352355Y-14393600D01*
X7652445Y-14393600D01*
X8126443Y-14299316D01*
X8663959Y-13940159D01*
X8688387Y-13903600D01*
X10181152Y-13903600D01*
X10378400Y-13942835D01*
X10679010Y-13883040D01*
X10778400Y-13883040D01*
X11026165Y-13833757D01*
X11236209Y-13693409D01*
X11328400Y-13555436D01*
X11420591Y-13693409D01*
X11630635Y-13833757D01*
X11878400Y-13883040D01*
X12678400Y-13883040D01*
X12926165Y-13833757D01*
X13136209Y-13693409D01*
X13276557Y-13483365D01*
X13325840Y-13235600D01*
X13325840Y-12335600D01*
X13276557Y-12087835D01*
X13136209Y-11877791D01*
X12926165Y-11737443D01*
X12678400Y-11688160D01*
X12189716Y-11688160D01*
X12201450Y-11670600D01*
X15307818Y-11670600D01*
X15440979Y-11803761D01*
G36*
X26376600Y-10693400D02*
X26398600Y-10693400D01*
X26398600Y-10947400D01*
X26376600Y-10947400D01*
X26376600Y-11746650D01*
X26535350Y-11905400D01*
X26627909Y-11905400D01*
X26861298Y-11808727D01*
X27039927Y-11630099D01*
X27136600Y-11396710D01*
X27136600Y-11106150D01*
X26977852Y-10947402D01*
X27136600Y-10947402D01*
X27136600Y-10895102D01*
X29019571Y-12778073D01*
X29061971Y-12841529D01*
X29125427Y-12883929D01*
X29313362Y-13009504D01*
X29361505Y-13019080D01*
X29535048Y-13053600D01*
X29535052Y-13053600D01*
X29587826Y-13064097D01*
X29501419Y-13150504D01*
X29211400Y-13850672D01*
X29211400Y-14608528D01*
X29501419Y-15308696D01*
X29815323Y-15622600D01*
X24971992Y-15622600D01*
X24975757Y-15616965D01*
X25025040Y-15369200D01*
X25025040Y-14469200D01*
X24975757Y-14221435D01*
X24885398Y-14086204D01*
X24954961Y-14016640D01*
X25327600Y-14016640D01*
X25575365Y-13967357D01*
X25785409Y-13827009D01*
X25925757Y-13616965D01*
X25975040Y-13369200D01*
X25975040Y-12469200D01*
X25925757Y-12221435D01*
X25785409Y-12011391D01*
X25575365Y-11871043D01*
X25327600Y-11821760D01*
X25319401Y-11821760D01*
X25459409Y-11728209D01*
X25500254Y-11667080D01*
X25641902Y-11808727D01*
X25875291Y-11905400D01*
X25967850Y-11905400D01*
X26126600Y-11746650D01*
X26126600Y-10947400D01*
X26104600Y-10947400D01*
X26104600Y-10693400D01*
X26126600Y-10693400D01*
X26126600Y-10673400D01*
X26376600Y-10673400D01*
X26376600Y-10693400D01*
X26376600Y-10693400D01*
G37*
X26376600Y-10693400D02*
X26398600Y-10693400D01*
X26398600Y-10947400D01*
X26376600Y-10947400D01*
X26376600Y-11746650D01*
X26535350Y-11905400D01*
X26627909Y-11905400D01*
X26861298Y-11808727D01*
X27039927Y-11630099D01*
X27136600Y-11396710D01*
X27136600Y-11106150D01*
X26977852Y-10947402D01*
X27136600Y-10947402D01*
X27136600Y-10895102D01*
X29019571Y-12778073D01*
X29061971Y-12841529D01*
X29125427Y-12883929D01*
X29313362Y-13009504D01*
X29361505Y-13019080D01*
X29535048Y-13053600D01*
X29535052Y-13053600D01*
X29587826Y-13064097D01*
X29501419Y-13150504D01*
X29211400Y-13850672D01*
X29211400Y-14608528D01*
X29501419Y-15308696D01*
X29815323Y-15622600D01*
X24971992Y-15622600D01*
X24975757Y-15616965D01*
X25025040Y-15369200D01*
X25025040Y-14469200D01*
X24975757Y-14221435D01*
X24885398Y-14086204D01*
X24954961Y-14016640D01*
X25327600Y-14016640D01*
X25575365Y-13967357D01*
X25785409Y-13827009D01*
X25925757Y-13616965D01*
X25975040Y-13369200D01*
X25975040Y-12469200D01*
X25925757Y-12221435D01*
X25785409Y-12011391D01*
X25575365Y-11871043D01*
X25327600Y-11821760D01*
X25319401Y-11821760D01*
X25459409Y-11728209D01*
X25500254Y-11667080D01*
X25641902Y-11808727D01*
X25875291Y-11905400D01*
X25967850Y-11905400D01*
X26126600Y-11746650D01*
X26126600Y-10947400D01*
X26104600Y-10947400D01*
X26104600Y-10693400D01*
X26126600Y-10693400D01*
X26126600Y-10673400D01*
X26376600Y-10673400D01*
X26376600Y-10693400D01*
G36*
X29501419Y-1150504D02*
X29357400Y-1498197D01*
X29357400Y-1378290D01*
X29260727Y-1144901D01*
X29082098Y-966273D01*
X28848709Y-869600D01*
X28608150Y-869600D01*
X28449400Y-1028350D01*
X28449400Y-1752600D01*
X28469400Y-1752600D01*
X28469400Y-2006600D01*
X28449400Y-2006600D01*
X28449400Y-2730850D01*
X28608150Y-2889600D01*
X28848709Y-2889600D01*
X29082098Y-2792927D01*
X29227538Y-2647488D01*
X29501419Y-3308696D01*
X30037304Y-3844581D01*
X30737472Y-4134600D01*
X31495328Y-4134600D01*
X32195496Y-3844581D01*
X32731381Y-3308696D01*
X33021400Y-2608528D01*
X33021400Y-1850672D01*
X32731381Y-1150504D01*
X32417477Y-836600D01*
X44121401Y-836600D01*
X44121401Y-3162247D01*
X44075116Y-2929557D01*
X43715959Y-2392041D01*
X43178443Y-2032884D01*
X42704445Y-1938600D01*
X40404355Y-1938600D01*
X39930357Y-2032884D01*
X39392841Y-2392041D01*
X39033684Y-2929557D01*
X38907565Y-3563600D01*
X39033684Y-4197643D01*
X39392841Y-4735159D01*
X39930357Y-5094316D01*
X40404355Y-5188600D01*
X42704445Y-5188600D01*
X43178443Y-5094316D01*
X43715959Y-4735159D01*
X44075116Y-4197643D01*
X44121401Y-3964954D01*
X44121401Y-8162245D01*
X44075116Y-7929557D01*
X43715959Y-7392041D01*
X43178443Y-7032884D01*
X42704445Y-6938600D01*
X40404355Y-6938600D01*
X39930357Y-7032884D01*
X39392841Y-7392041D01*
X39033684Y-7929557D01*
X38907565Y-8563600D01*
X39033684Y-9197643D01*
X39392841Y-9735159D01*
X39930357Y-10094316D01*
X40404355Y-10188600D01*
X42704445Y-10188600D01*
X43178443Y-10094316D01*
X43715959Y-9735159D01*
X44075116Y-9197643D01*
X44121400Y-8964955D01*
X44121400Y-12309138D01*
X43992209Y-12115791D01*
X43782165Y-11975443D01*
X43534400Y-11926160D01*
X39574400Y-11926160D01*
X39326635Y-11975443D01*
X39116591Y-12115791D01*
X38976243Y-12325835D01*
X38926960Y-12573600D01*
X38926960Y-14553600D01*
X38976243Y-14801365D01*
X39116591Y-15011409D01*
X39326635Y-15151757D01*
X39574400Y-15201040D01*
X43534400Y-15201040D01*
X43782165Y-15151757D01*
X43992209Y-15011409D01*
X44121400Y-14818062D01*
X44121400Y-15622600D01*
X32417477Y-15622600D01*
X32731381Y-15308696D01*
X33021400Y-14608528D01*
X33021400Y-13850672D01*
X32731381Y-13150504D01*
X32622477Y-13041600D01*
X33861599Y-13041600D01*
X34017191Y-13197192D01*
X33944308Y-13563600D01*
X34059561Y-14143018D01*
X34387775Y-14634225D01*
X34878982Y-14962439D01*
X35312144Y-15048600D01*
X35604656Y-15048600D01*
X36037818Y-14962439D01*
X36529025Y-14634225D01*
X36857239Y-14143018D01*
X36972492Y-13563600D01*
X36857239Y-12984182D01*
X36529025Y-12492975D01*
X36230639Y-12293600D01*
X36529025Y-12094225D01*
X36857239Y-11603018D01*
X36972492Y-11023600D01*
X36857239Y-10444182D01*
X36529025Y-9952975D01*
X36209922Y-9739757D01*
X36339758Y-9678783D01*
X36730045Y-9250524D01*
X36899876Y-8840490D01*
X36778555Y-8610600D01*
X35585400Y-8610600D01*
X35585400Y-8630600D01*
X35331400Y-8630600D01*
X35331400Y-8610600D01*
X34138245Y-8610600D01*
X34016924Y-8840490D01*
X34186755Y-9250524D01*
X34577042Y-9678783D01*
X34706878Y-9739757D01*
X34387775Y-9952975D01*
X34180222Y-10263600D01*
X32978327Y-10263600D01*
X32958329Y-10233671D01*
X32706937Y-10065696D01*
X32485252Y-10021600D01*
X32485247Y-10021600D01*
X32410400Y-10006712D01*
X32335553Y-10021600D01*
X29371703Y-10021600D01*
X28497142Y-9147040D01*
X29290900Y-9147040D01*
X29538665Y-9097757D01*
X29748709Y-8957409D01*
X29889057Y-8747365D01*
X29938340Y-8499600D01*
X29938340Y-8049600D01*
X29918449Y-7949600D01*
X29938340Y-7849600D01*
X29938340Y-7399600D01*
X29918449Y-7299600D01*
X29938340Y-7199600D01*
X29938340Y-7146842D01*
X30394572Y-7603074D01*
X30436972Y-7666530D01*
X30500428Y-7708930D01*
X30688363Y-7834505D01*
X30736506Y-7844081D01*
X30910049Y-7878601D01*
X30910053Y-7878601D01*
X30984901Y-7893489D01*
X31059749Y-7878601D01*
X34119688Y-7878601D01*
X34016924Y-8126710D01*
X34138245Y-8356600D01*
X35331400Y-8356600D01*
X35331400Y-8336600D01*
X35585400Y-8336600D01*
X35585400Y-8356600D01*
X36778555Y-8356600D01*
X36899876Y-8126710D01*
X36730045Y-7716676D01*
X36619942Y-7595861D01*
X37847873Y-6367931D01*
X37911329Y-6325531D01*
X38079304Y-6074139D01*
X38123400Y-5852454D01*
X38123400Y-5852449D01*
X38138288Y-5777602D01*
X38123400Y-5702755D01*
X38123400Y-4283447D01*
X38138288Y-4208600D01*
X38123400Y-4133753D01*
X38123400Y-4133748D01*
X38079304Y-3912063D01*
X37911329Y-3660671D01*
X37847873Y-3618271D01*
X37148731Y-2919130D01*
X37106329Y-2855671D01*
X36955840Y-2755117D01*
X36955840Y-2553600D01*
X36906557Y-2305835D01*
X36766209Y-2095791D01*
X36556165Y-1955443D01*
X36308400Y-1906160D01*
X34608400Y-1906160D01*
X34360635Y-1955443D01*
X34150591Y-2095791D01*
X34010243Y-2305835D01*
X33960960Y-2553600D01*
X33960960Y-4253600D01*
X33963148Y-4264600D01*
X29925900Y-4264600D01*
X29925900Y-4247598D01*
X29781652Y-4247598D01*
X29925900Y-4103350D01*
X29925900Y-4023290D01*
X29829227Y-3789901D01*
X29650598Y-3611273D01*
X29417209Y-3514600D01*
X28851650Y-3514600D01*
X28692900Y-3673350D01*
X28692900Y-4152160D01*
X28438900Y-4152160D01*
X28438900Y-3673350D01*
X28280150Y-3514600D01*
X27714591Y-3514600D01*
X27481202Y-3611273D01*
X27302573Y-3789901D01*
X27205900Y-4023290D01*
X27205900Y-4103350D01*
X27364650Y-4262100D01*
X27502356Y-4262100D01*
X27383091Y-4341791D01*
X27242743Y-4551835D01*
X27228547Y-4623203D01*
X27205900Y-4645850D01*
X27205900Y-4725910D01*
X27207398Y-4729527D01*
X27193460Y-4799600D01*
X27193460Y-5249600D01*
X27213351Y-5349600D01*
X27193460Y-5449600D01*
X27193460Y-5899600D01*
X27213351Y-5999600D01*
X27193460Y-6099600D01*
X27193460Y-6473858D01*
X25449744Y-4730143D01*
X25449740Y-4730137D01*
X25351732Y-4632129D01*
X25364447Y-4629600D01*
X25364452Y-4629600D01*
X25586137Y-4585504D01*
X25837529Y-4417529D01*
X25879931Y-4354070D01*
X27306873Y-2927129D01*
X27370329Y-2884729D01*
X27379664Y-2870759D01*
X27470165Y-2852757D01*
X27561502Y-2791727D01*
X27562702Y-2792927D01*
X27796091Y-2889600D01*
X28036650Y-2889600D01*
X28195400Y-2730850D01*
X28195400Y-2006600D01*
X28175400Y-2006600D01*
X28175400Y-1752600D01*
X28195400Y-1752600D01*
X28195400Y-1028350D01*
X28036650Y-869600D01*
X27796091Y-869600D01*
X27562702Y-966273D01*
X27561502Y-967473D01*
X27470165Y-906443D01*
X27222400Y-857160D01*
X26422400Y-857160D01*
X26174635Y-906443D01*
X26014287Y-1013585D01*
X25965127Y-894901D01*
X25906826Y-836600D01*
X29815323Y-836600D01*
X29501419Y-1150504D01*
X29501419Y-1150504D01*
G37*
X29501419Y-1150504D02*
X29357400Y-1498197D01*
X29357400Y-1378290D01*
X29260727Y-1144901D01*
X29082098Y-966273D01*
X28848709Y-869600D01*
X28608150Y-869600D01*
X28449400Y-1028350D01*
X28449400Y-1752600D01*
X28469400Y-1752600D01*
X28469400Y-2006600D01*
X28449400Y-2006600D01*
X28449400Y-2730850D01*
X28608150Y-2889600D01*
X28848709Y-2889600D01*
X29082098Y-2792927D01*
X29227538Y-2647488D01*
X29501419Y-3308696D01*
X30037304Y-3844581D01*
X30737472Y-4134600D01*
X31495328Y-4134600D01*
X32195496Y-3844581D01*
X32731381Y-3308696D01*
X33021400Y-2608528D01*
X33021400Y-1850672D01*
X32731381Y-1150504D01*
X32417477Y-836600D01*
X44121401Y-836600D01*
X44121401Y-3162247D01*
X44075116Y-2929557D01*
X43715959Y-2392041D01*
X43178443Y-2032884D01*
X42704445Y-1938600D01*
X40404355Y-1938600D01*
X39930357Y-2032884D01*
X39392841Y-2392041D01*
X39033684Y-2929557D01*
X38907565Y-3563600D01*
X39033684Y-4197643D01*
X39392841Y-4735159D01*
X39930357Y-5094316D01*
X40404355Y-5188600D01*
X42704445Y-5188600D01*
X43178443Y-5094316D01*
X43715959Y-4735159D01*
X44075116Y-4197643D01*
X44121401Y-3964954D01*
X44121401Y-8162245D01*
X44075116Y-7929557D01*
X43715959Y-7392041D01*
X43178443Y-7032884D01*
X42704445Y-6938600D01*
X40404355Y-6938600D01*
X39930357Y-7032884D01*
X39392841Y-7392041D01*
X39033684Y-7929557D01*
X38907565Y-8563600D01*
X39033684Y-9197643D01*
X39392841Y-9735159D01*
X39930357Y-10094316D01*
X40404355Y-10188600D01*
X42704445Y-10188600D01*
X43178443Y-10094316D01*
X43715959Y-9735159D01*
X44075116Y-9197643D01*
X44121400Y-8964955D01*
X44121400Y-12309138D01*
X43992209Y-12115791D01*
X43782165Y-11975443D01*
X43534400Y-11926160D01*
X39574400Y-11926160D01*
X39326635Y-11975443D01*
X39116591Y-12115791D01*
X38976243Y-12325835D01*
X38926960Y-12573600D01*
X38926960Y-14553600D01*
X38976243Y-14801365D01*
X39116591Y-15011409D01*
X39326635Y-15151757D01*
X39574400Y-15201040D01*
X43534400Y-15201040D01*
X43782165Y-15151757D01*
X43992209Y-15011409D01*
X44121400Y-14818062D01*
X44121400Y-15622600D01*
X32417477Y-15622600D01*
X32731381Y-15308696D01*
X33021400Y-14608528D01*
X33021400Y-13850672D01*
X32731381Y-13150504D01*
X32622477Y-13041600D01*
X33861599Y-13041600D01*
X34017191Y-13197192D01*
X33944308Y-13563600D01*
X34059561Y-14143018D01*
X34387775Y-14634225D01*
X34878982Y-14962439D01*
X35312144Y-15048600D01*
X35604656Y-15048600D01*
X36037818Y-14962439D01*
X36529025Y-14634225D01*
X36857239Y-14143018D01*
X36972492Y-13563600D01*
X36857239Y-12984182D01*
X36529025Y-12492975D01*
X36230639Y-12293600D01*
X36529025Y-12094225D01*
X36857239Y-11603018D01*
X36972492Y-11023600D01*
X36857239Y-10444182D01*
X36529025Y-9952975D01*
X36209922Y-9739757D01*
X36339758Y-9678783D01*
X36730045Y-9250524D01*
X36899876Y-8840490D01*
X36778555Y-8610600D01*
X35585400Y-8610600D01*
X35585400Y-8630600D01*
X35331400Y-8630600D01*
X35331400Y-8610600D01*
X34138245Y-8610600D01*
X34016924Y-8840490D01*
X34186755Y-9250524D01*
X34577042Y-9678783D01*
X34706878Y-9739757D01*
X34387775Y-9952975D01*
X34180222Y-10263600D01*
X32978327Y-10263600D01*
X32958329Y-10233671D01*
X32706937Y-10065696D01*
X32485252Y-10021600D01*
X32485247Y-10021600D01*
X32410400Y-10006712D01*
X32335553Y-10021600D01*
X29371703Y-10021600D01*
X28497142Y-9147040D01*
X29290900Y-9147040D01*
X29538665Y-9097757D01*
X29748709Y-8957409D01*
X29889057Y-8747365D01*
X29938340Y-8499600D01*
X29938340Y-8049600D01*
X29918449Y-7949600D01*
X29938340Y-7849600D01*
X29938340Y-7399600D01*
X29918449Y-7299600D01*
X29938340Y-7199600D01*
X29938340Y-7146842D01*
X30394572Y-7603074D01*
X30436972Y-7666530D01*
X30500428Y-7708930D01*
X30688363Y-7834505D01*
X30736506Y-7844081D01*
X30910049Y-7878601D01*
X30910053Y-7878601D01*
X30984901Y-7893489D01*
X31059749Y-7878601D01*
X34119688Y-7878601D01*
X34016924Y-8126710D01*
X34138245Y-8356600D01*
X35331400Y-8356600D01*
X35331400Y-8336600D01*
X35585400Y-8336600D01*
X35585400Y-8356600D01*
X36778555Y-8356600D01*
X36899876Y-8126710D01*
X36730045Y-7716676D01*
X36619942Y-7595861D01*
X37847873Y-6367931D01*
X37911329Y-6325531D01*
X38079304Y-6074139D01*
X38123400Y-5852454D01*
X38123400Y-5852449D01*
X38138288Y-5777602D01*
X38123400Y-5702755D01*
X38123400Y-4283447D01*
X38138288Y-4208600D01*
X38123400Y-4133753D01*
X38123400Y-4133748D01*
X38079304Y-3912063D01*
X37911329Y-3660671D01*
X37847873Y-3618271D01*
X37148731Y-2919130D01*
X37106329Y-2855671D01*
X36955840Y-2755117D01*
X36955840Y-2553600D01*
X36906557Y-2305835D01*
X36766209Y-2095791D01*
X36556165Y-1955443D01*
X36308400Y-1906160D01*
X34608400Y-1906160D01*
X34360635Y-1955443D01*
X34150591Y-2095791D01*
X34010243Y-2305835D01*
X33960960Y-2553600D01*
X33960960Y-4253600D01*
X33963148Y-4264600D01*
X29925900Y-4264600D01*
X29925900Y-4247598D01*
X29781652Y-4247598D01*
X29925900Y-4103350D01*
X29925900Y-4023290D01*
X29829227Y-3789901D01*
X29650598Y-3611273D01*
X29417209Y-3514600D01*
X28851650Y-3514600D01*
X28692900Y-3673350D01*
X28692900Y-4152160D01*
X28438900Y-4152160D01*
X28438900Y-3673350D01*
X28280150Y-3514600D01*
X27714591Y-3514600D01*
X27481202Y-3611273D01*
X27302573Y-3789901D01*
X27205900Y-4023290D01*
X27205900Y-4103350D01*
X27364650Y-4262100D01*
X27502356Y-4262100D01*
X27383091Y-4341791D01*
X27242743Y-4551835D01*
X27228547Y-4623203D01*
X27205900Y-4645850D01*
X27205900Y-4725910D01*
X27207398Y-4729527D01*
X27193460Y-4799600D01*
X27193460Y-5249600D01*
X27213351Y-5349600D01*
X27193460Y-5449600D01*
X27193460Y-5899600D01*
X27213351Y-5999600D01*
X27193460Y-6099600D01*
X27193460Y-6473858D01*
X25449744Y-4730143D01*
X25449740Y-4730137D01*
X25351732Y-4632129D01*
X25364447Y-4629600D01*
X25364452Y-4629600D01*
X25586137Y-4585504D01*
X25837529Y-4417529D01*
X25879931Y-4354070D01*
X27306873Y-2927129D01*
X27370329Y-2884729D01*
X27379664Y-2870759D01*
X27470165Y-2852757D01*
X27561502Y-2791727D01*
X27562702Y-2792927D01*
X27796091Y-2889600D01*
X28036650Y-2889600D01*
X28195400Y-2730850D01*
X28195400Y-2006600D01*
X28175400Y-2006600D01*
X28175400Y-1752600D01*
X28195400Y-1752600D01*
X28195400Y-1028350D01*
X28036650Y-869600D01*
X27796091Y-869600D01*
X27562702Y-966273D01*
X27561502Y-967473D01*
X27470165Y-906443D01*
X27222400Y-857160D01*
X26422400Y-857160D01*
X26174635Y-906443D01*
X26014287Y-1013585D01*
X25965127Y-894901D01*
X25906826Y-836600D01*
X29815323Y-836600D01*
X29501419Y-1150504D01*
G36*
X23095058Y-10740560D02*
X23109296Y-10812137D01*
X23277271Y-11063529D01*
X23528663Y-11231504D01*
X23602612Y-11246213D01*
X23661270Y-11304872D01*
X23703671Y-11368329D01*
X23899692Y-11499306D01*
X23903443Y-11518165D01*
X24043791Y-11728209D01*
X24253835Y-11868557D01*
X24276738Y-11873113D01*
X24069791Y-12011391D01*
X23977600Y-12149364D01*
X23885409Y-12011391D01*
X23675365Y-11871043D01*
X23427600Y-11821760D01*
X22627600Y-11821760D01*
X22379835Y-11871043D01*
X22169791Y-12011391D01*
X22029443Y-12221435D01*
X21980160Y-12469200D01*
X21980160Y-12777358D01*
X21568366Y-12365565D01*
X21724899Y-12300727D01*
X21903527Y-12122098D01*
X22000200Y-11888709D01*
X22000200Y-11598150D01*
X21841450Y-11439400D01*
X21092200Y-11439400D01*
X21092200Y-11459400D01*
X20838200Y-11459400D01*
X20838200Y-11439400D01*
X20818200Y-11439400D01*
X20818200Y-11185400D01*
X20838200Y-11185400D01*
X20838200Y-11165400D01*
X21092200Y-11165400D01*
X21092200Y-11185400D01*
X21841450Y-11185400D01*
X22000200Y-11026650D01*
X22000200Y-10736091D01*
X21903527Y-10502702D01*
X21724899Y-10324073D01*
X21590428Y-10268373D01*
X22106650Y-9752152D01*
X23095058Y-10740560D01*
X23095058Y-10740560D01*
G37*
X23095058Y-10740560D02*
X23109296Y-10812137D01*
X23277271Y-11063529D01*
X23528663Y-11231504D01*
X23602612Y-11246213D01*
X23661270Y-11304872D01*
X23703671Y-11368329D01*
X23899692Y-11499306D01*
X23903443Y-11518165D01*
X24043791Y-11728209D01*
X24253835Y-11868557D01*
X24276738Y-11873113D01*
X24069791Y-12011391D01*
X23977600Y-12149364D01*
X23885409Y-12011391D01*
X23675365Y-11871043D01*
X23427600Y-11821760D01*
X22627600Y-11821760D01*
X22379835Y-11871043D01*
X22169791Y-12011391D01*
X22029443Y-12221435D01*
X21980160Y-12469200D01*
X21980160Y-12777358D01*
X21568366Y-12365565D01*
X21724899Y-12300727D01*
X21903527Y-12122098D01*
X22000200Y-11888709D01*
X22000200Y-11598150D01*
X21841450Y-11439400D01*
X21092200Y-11439400D01*
X21092200Y-11459400D01*
X20838200Y-11459400D01*
X20838200Y-11439400D01*
X20818200Y-11439400D01*
X20818200Y-11185400D01*
X20838200Y-11185400D01*
X20838200Y-11165400D01*
X21092200Y-11165400D01*
X21092200Y-11185400D01*
X21841450Y-11185400D01*
X22000200Y-11026650D01*
X22000200Y-10736091D01*
X21903527Y-10502702D01*
X21724899Y-10324073D01*
X21590428Y-10268373D01*
X22106650Y-9752152D01*
X23095058Y-10740560D01*
G36*
X9160243Y-3951365D02*
X9213168Y-4030572D01*
X9123400Y-4247290D01*
X9123400Y-4387850D01*
X9282150Y-4546600D01*
X10406400Y-4546600D01*
X10406400Y-4526600D01*
X10660400Y-4526600D01*
X10660400Y-4546600D01*
X11784650Y-4546600D01*
X11892650Y-4438600D01*
X12092400Y-4438600D01*
X12092401Y-8896796D01*
X11301038Y-9688160D01*
X10928400Y-9688160D01*
X10680635Y-9737443D01*
X10470591Y-9877791D01*
X10330243Y-10087835D01*
X10280960Y-10335600D01*
X10280960Y-11235600D01*
X10330243Y-11483365D01*
X10424105Y-11623838D01*
X10361400Y-11611365D01*
X10249617Y-11633600D01*
X8688387Y-11633600D01*
X8663959Y-11597041D01*
X8126443Y-11237884D01*
X7652445Y-11143600D01*
X5352355Y-11143600D01*
X4878357Y-11237884D01*
X4443400Y-11528513D01*
X4443400Y-9008687D01*
X4878357Y-9299316D01*
X5352355Y-9393600D01*
X7652445Y-9393600D01*
X8126443Y-9299316D01*
X8663959Y-8940159D01*
X9023116Y-8402643D01*
X9149235Y-7768600D01*
X9023116Y-7134557D01*
X8735639Y-6704318D01*
X8739248Y-6703600D01*
X9303870Y-6703600D01*
X9510635Y-6841757D01*
X9758400Y-6891040D01*
X11308400Y-6891040D01*
X11556165Y-6841757D01*
X11766209Y-6701409D01*
X11906557Y-6491365D01*
X11955840Y-6243600D01*
X11955840Y-5643600D01*
X11906557Y-5395835D01*
X11853632Y-5316628D01*
X11943400Y-5099910D01*
X11943400Y-4959350D01*
X11784650Y-4800600D01*
X10660400Y-4800600D01*
X10660400Y-4820600D01*
X10406400Y-4820600D01*
X10406400Y-4800600D01*
X9282150Y-4800600D01*
X9123400Y-4959350D01*
X9123400Y-5099910D01*
X9158066Y-5183600D01*
X8979202Y-5183600D01*
X8492731Y-4697130D01*
X8450329Y-4633671D01*
X8198937Y-4465696D01*
X8186696Y-4463261D01*
X8140150Y-4393600D01*
X8608710Y-4393600D01*
X8842099Y-4296927D01*
X9020727Y-4118298D01*
X9117400Y-3884909D01*
X9117400Y-3735976D01*
X9160243Y-3951365D01*
X9160243Y-3951365D01*
G37*
X9160243Y-3951365D02*
X9213168Y-4030572D01*
X9123400Y-4247290D01*
X9123400Y-4387850D01*
X9282150Y-4546600D01*
X10406400Y-4546600D01*
X10406400Y-4526600D01*
X10660400Y-4526600D01*
X10660400Y-4546600D01*
X11784650Y-4546600D01*
X11892650Y-4438600D01*
X12092400Y-4438600D01*
X12092401Y-8896796D01*
X11301038Y-9688160D01*
X10928400Y-9688160D01*
X10680635Y-9737443D01*
X10470591Y-9877791D01*
X10330243Y-10087835D01*
X10280960Y-10335600D01*
X10280960Y-11235600D01*
X10330243Y-11483365D01*
X10424105Y-11623838D01*
X10361400Y-11611365D01*
X10249617Y-11633600D01*
X8688387Y-11633600D01*
X8663959Y-11597041D01*
X8126443Y-11237884D01*
X7652445Y-11143600D01*
X5352355Y-11143600D01*
X4878357Y-11237884D01*
X4443400Y-11528513D01*
X4443400Y-9008687D01*
X4878357Y-9299316D01*
X5352355Y-9393600D01*
X7652445Y-9393600D01*
X8126443Y-9299316D01*
X8663959Y-8940159D01*
X9023116Y-8402643D01*
X9149235Y-7768600D01*
X9023116Y-7134557D01*
X8735639Y-6704318D01*
X8739248Y-6703600D01*
X9303870Y-6703600D01*
X9510635Y-6841757D01*
X9758400Y-6891040D01*
X11308400Y-6891040D01*
X11556165Y-6841757D01*
X11766209Y-6701409D01*
X11906557Y-6491365D01*
X11955840Y-6243600D01*
X11955840Y-5643600D01*
X11906557Y-5395835D01*
X11853632Y-5316628D01*
X11943400Y-5099910D01*
X11943400Y-4959350D01*
X11784650Y-4800600D01*
X10660400Y-4800600D01*
X10660400Y-4820600D01*
X10406400Y-4820600D01*
X10406400Y-4800600D01*
X9282150Y-4800600D01*
X9123400Y-4959350D01*
X9123400Y-5099910D01*
X9158066Y-5183600D01*
X8979202Y-5183600D01*
X8492731Y-4697130D01*
X8450329Y-4633671D01*
X8198937Y-4465696D01*
X8186696Y-4463261D01*
X8140150Y-4393600D01*
X8608710Y-4393600D01*
X8842099Y-4296927D01*
X9020727Y-4118298D01*
X9117400Y-3884909D01*
X9117400Y-3735976D01*
X9160243Y-3951365D01*
G36*
X17301419Y-1150504D02*
X17192070Y-1414495D01*
X17166209Y-1375791D01*
X16956165Y-1235443D01*
X16708400Y-1186160D01*
X15158400Y-1186160D01*
X14910635Y-1235443D01*
X14700591Y-1375791D01*
X14560243Y-1585835D01*
X14510960Y-1833600D01*
X14510960Y-2433600D01*
X14560243Y-2681365D01*
X14618532Y-2768600D01*
X14560243Y-2855835D01*
X14510960Y-3103600D01*
X14510960Y-3703600D01*
X14560243Y-3951365D01*
X14618532Y-4038600D01*
X14560243Y-4125835D01*
X14510960Y-4373600D01*
X14510960Y-4973600D01*
X14560243Y-5221365D01*
X14618532Y-5308600D01*
X14560243Y-5395835D01*
X14510960Y-5643600D01*
X14510960Y-6243600D01*
X14560243Y-6491365D01*
X14700591Y-6701409D01*
X14910635Y-6841757D01*
X15158400Y-6891040D01*
X15560883Y-6891040D01*
X15301419Y-7150504D01*
X15011400Y-7850672D01*
X15011400Y-8608528D01*
X15301419Y-9308696D01*
X15837304Y-9844581D01*
X16537472Y-10134600D01*
X17295328Y-10134600D01*
X17590436Y-10012362D01*
X17244729Y-10358070D01*
X17181271Y-10400471D01*
X17013296Y-10651863D01*
X16976620Y-10836245D01*
X16361821Y-10221447D01*
X16312445Y-10147551D01*
X16019706Y-9951948D01*
X15761561Y-9900600D01*
X15761557Y-9900600D01*
X15674396Y-9883263D01*
X15587235Y-9900600D01*
X13238203Y-9900600D01*
X13336876Y-9801927D01*
X13400329Y-9759529D01*
X13442727Y-9696076D01*
X13442729Y-9696074D01*
X13568303Y-9508138D01*
X13568304Y-9508137D01*
X13612400Y-9286452D01*
X13612400Y-9286448D01*
X13627288Y-9211601D01*
X13612400Y-9136754D01*
X13612400Y-3167442D01*
X13627288Y-3092595D01*
X13612400Y-3017748D01*
X13612400Y-3017744D01*
X13568304Y-2796059D01*
X13400329Y-2544667D01*
X13336873Y-2502267D01*
X12483735Y-1649130D01*
X12441333Y-1585671D01*
X12189941Y-1417696D01*
X11968256Y-1373600D01*
X11968251Y-1373600D01*
X11893404Y-1358712D01*
X11818557Y-1373600D01*
X11762930Y-1373600D01*
X11556165Y-1235443D01*
X11308400Y-1186160D01*
X9758400Y-1186160D01*
X9510635Y-1235443D01*
X9300591Y-1375791D01*
X9160243Y-1585835D01*
X9117400Y-1801224D01*
X9117400Y-1652291D01*
X9020727Y-1418902D01*
X8842099Y-1240273D01*
X8608710Y-1143600D01*
X6788150Y-1143600D01*
X6629400Y-1302350D01*
X6629400Y-2641600D01*
X8958650Y-2641600D01*
X9117400Y-2482850D01*
X9117400Y-2465976D01*
X9160243Y-2681365D01*
X9218532Y-2768600D01*
X9160243Y-2855835D01*
X9117400Y-3071224D01*
X9117400Y-3054350D01*
X8958650Y-2895600D01*
X6629400Y-2895600D01*
X6629400Y-2915600D01*
X6375400Y-2915600D01*
X6375400Y-2895600D01*
X6355400Y-2895600D01*
X6355400Y-2641600D01*
X6375400Y-2641600D01*
X6375400Y-1302350D01*
X6216650Y-1143600D01*
X4443400Y-1143600D01*
X4443400Y-836600D01*
X17615323Y-836600D01*
X17301419Y-1150504D01*
X17301419Y-1150504D01*
G37*
X17301419Y-1150504D02*
X17192070Y-1414495D01*
X17166209Y-1375791D01*
X16956165Y-1235443D01*
X16708400Y-1186160D01*
X15158400Y-1186160D01*
X14910635Y-1235443D01*
X14700591Y-1375791D01*
X14560243Y-1585835D01*
X14510960Y-1833600D01*
X14510960Y-2433600D01*
X14560243Y-2681365D01*
X14618532Y-2768600D01*
X14560243Y-2855835D01*
X14510960Y-3103600D01*
X14510960Y-3703600D01*
X14560243Y-3951365D01*
X14618532Y-4038600D01*
X14560243Y-4125835D01*
X14510960Y-4373600D01*
X14510960Y-4973600D01*
X14560243Y-5221365D01*
X14618532Y-5308600D01*
X14560243Y-5395835D01*
X14510960Y-5643600D01*
X14510960Y-6243600D01*
X14560243Y-6491365D01*
X14700591Y-6701409D01*
X14910635Y-6841757D01*
X15158400Y-6891040D01*
X15560883Y-6891040D01*
X15301419Y-7150504D01*
X15011400Y-7850672D01*
X15011400Y-8608528D01*
X15301419Y-9308696D01*
X15837304Y-9844581D01*
X16537472Y-10134600D01*
X17295328Y-10134600D01*
X17590436Y-10012362D01*
X17244729Y-10358070D01*
X17181271Y-10400471D01*
X17013296Y-10651863D01*
X16976620Y-10836245D01*
X16361821Y-10221447D01*
X16312445Y-10147551D01*
X16019706Y-9951948D01*
X15761561Y-9900600D01*
X15761557Y-9900600D01*
X15674396Y-9883263D01*
X15587235Y-9900600D01*
X13238203Y-9900600D01*
X13336876Y-9801927D01*
X13400329Y-9759529D01*
X13442727Y-9696076D01*
X13442729Y-9696074D01*
X13568303Y-9508138D01*
X13568304Y-9508137D01*
X13612400Y-9286452D01*
X13612400Y-9286448D01*
X13627288Y-9211601D01*
X13612400Y-9136754D01*
X13612400Y-3167442D01*
X13627288Y-3092595D01*
X13612400Y-3017748D01*
X13612400Y-3017744D01*
X13568304Y-2796059D01*
X13400329Y-2544667D01*
X13336873Y-2502267D01*
X12483735Y-1649130D01*
X12441333Y-1585671D01*
X12189941Y-1417696D01*
X11968256Y-1373600D01*
X11968251Y-1373600D01*
X11893404Y-1358712D01*
X11818557Y-1373600D01*
X11762930Y-1373600D01*
X11556165Y-1235443D01*
X11308400Y-1186160D01*
X9758400Y-1186160D01*
X9510635Y-1235443D01*
X9300591Y-1375791D01*
X9160243Y-1585835D01*
X9117400Y-1801224D01*
X9117400Y-1652291D01*
X9020727Y-1418902D01*
X8842099Y-1240273D01*
X8608710Y-1143600D01*
X6788150Y-1143600D01*
X6629400Y-1302350D01*
X6629400Y-2641600D01*
X8958650Y-2641600D01*
X9117400Y-2482850D01*
X9117400Y-2465976D01*
X9160243Y-2681365D01*
X9218532Y-2768600D01*
X9160243Y-2855835D01*
X9117400Y-3071224D01*
X9117400Y-3054350D01*
X8958650Y-2895600D01*
X6629400Y-2895600D01*
X6629400Y-2915600D01*
X6375400Y-2915600D01*
X6375400Y-2895600D01*
X6355400Y-2895600D01*
X6355400Y-2641600D01*
X6375400Y-2641600D01*
X6375400Y-1302350D01*
X6216650Y-1143600D01*
X4443400Y-1143600D01*
X4443400Y-836600D01*
X17615323Y-836600D01*
X17301419Y-1150504D01*
G36*
X4814073Y-4446901D02*
X4717400Y-4680290D01*
X4717400Y-4895850D01*
X4876150Y-5054600D01*
X5625400Y-5054600D01*
X5625400Y-5034600D01*
X5879400Y-5034600D01*
X5879400Y-5054600D01*
X5899400Y-5054600D01*
X5899400Y-5308600D01*
X5879400Y-5308600D01*
X5879400Y-5328600D01*
X5625400Y-5328600D01*
X5625400Y-5308600D01*
X4876150Y-5308600D01*
X4717400Y-5467350D01*
X4717400Y-5682910D01*
X4814073Y-5916299D01*
X4992702Y-6094927D01*
X5188767Y-6176140D01*
X4878357Y-6237884D01*
X4443400Y-6528513D01*
X4443400Y-4393600D01*
X4867374Y-4393600D01*
X4814073Y-4446901D01*
X4814073Y-4446901D01*
G37*
X4814073Y-4446901D02*
X4717400Y-4680290D01*
X4717400Y-4895850D01*
X4876150Y-5054600D01*
X5625400Y-5054600D01*
X5625400Y-5034600D01*
X5879400Y-5034600D01*
X5879400Y-5054600D01*
X5899400Y-5054600D01*
X5899400Y-5308600D01*
X5879400Y-5308600D01*
X5879400Y-5328600D01*
X5625400Y-5328600D01*
X5625400Y-5308600D01*
X4876150Y-5308600D01*
X4717400Y-5467350D01*
X4717400Y-5682910D01*
X4814073Y-5916299D01*
X4992702Y-6094927D01*
X5188767Y-6176140D01*
X4878357Y-6237884D01*
X4443400Y-6528513D01*
X4443400Y-4393600D01*
X4867374Y-4393600D01*
X4814073Y-4446901D01*
G36*
X21828643Y-1006835D02*
X21779360Y-1254600D01*
X21779360Y-2504600D01*
X21828643Y-2752365D01*
X21968991Y-2962409D01*
X22179035Y-3102757D01*
X22426800Y-3152040D01*
X22518401Y-3152040D01*
X22518401Y-3502160D01*
X21940900Y-3502160D01*
X21693135Y-3551443D01*
X21607295Y-3608800D01*
X20496914Y-3608800D01*
X20458965Y-3583443D01*
X20290203Y-3549874D01*
X20531381Y-3308696D01*
X20821400Y-2608528D01*
X20821400Y-1850672D01*
X20531381Y-1150504D01*
X20217477Y-836600D01*
X21942391Y-836600D01*
X21828643Y-1006835D01*
X21828643Y-1006835D01*
G37*
X21828643Y-1006835D02*
X21779360Y-1254600D01*
X21779360Y-2504600D01*
X21828643Y-2752365D01*
X21968991Y-2962409D01*
X22179035Y-3102757D01*
X22426800Y-3152040D01*
X22518401Y-3152040D01*
X22518401Y-3502160D01*
X21940900Y-3502160D01*
X21693135Y-3551443D01*
X21607295Y-3608800D01*
X20496914Y-3608800D01*
X20458965Y-3583443D01*
X20290203Y-3549874D01*
X20531381Y-3308696D01*
X20821400Y-2608528D01*
X20821400Y-1850672D01*
X20531381Y-1150504D01*
X20217477Y-836600D01*
X21942391Y-836600D01*
X21828643Y-1006835D01*
G36*
X25053800Y-1752600D02*
X25073800Y-1752600D01*
X25073800Y-2006600D01*
X25053800Y-2006600D01*
X25053800Y-2026600D01*
X24799800Y-2026600D01*
X24799800Y-2006600D01*
X24779800Y-2006600D01*
X24779800Y-1752600D01*
X24799800Y-1752600D01*
X24799800Y-1732600D01*
X25053800Y-1732600D01*
X25053800Y-1752600D01*
X25053800Y-1752600D01*
G37*
X25053800Y-1752600D02*
X25073800Y-1752600D01*
X25073800Y-2006600D01*
X25053800Y-2006600D01*
X25053800Y-2026600D01*
X24799800Y-2026600D01*
X24799800Y-2006600D01*
X24779800Y-2006600D01*
X24779800Y-1752600D01*
X24799800Y-1752600D01*
X24799800Y-1732600D01*
X25053800Y-1732600D01*
X25053800Y-1752600D01*
M02*
