G04 #@! TF.GenerationSoftware,KiCad,Pcbnew,(2018-02-16 revision c95340fba)-makepkg*
G04 #@! TF.CreationDate,2018-04-16T21:08:27+02:00*
G04 #@! TF.ProjectId,lin_bb,6C696E5F62622E6B696361645F706362,rev?*
G04 #@! TF.SameCoordinates,Original*
G04 #@! TF.FileFunction,Other,Fab,Top*
%FSLAX46Y46*%
G04 Gerber Fmt 4.6, Leading zero omitted, Abs format (unit mm)*
G04 Created by KiCad (PCBNEW (2018-02-16 revision c95340fba)-makepkg) date 04/16/18 21:08:27*
%MOMM*%
%LPD*%
G01*
G04 APERTURE LIST*
%ADD10C,0.100000*%
%ADD11C,0.150000*%
G04 APERTURE END LIST*
D10*
X148164500Y-121183500D02*
X148164500Y-122783500D01*
X148164500Y-122783500D02*
X147364500Y-122783500D01*
X147364500Y-122783500D02*
X147364500Y-121183500D01*
X147364500Y-121183500D02*
X148164500Y-121183500D01*
X138722000Y-112884000D02*
X138722000Y-113684000D01*
X137122000Y-112884000D02*
X138722000Y-112884000D01*
X137122000Y-113684000D02*
X137122000Y-112884000D01*
X138722000Y-113684000D02*
X137122000Y-113684000D01*
X165608000Y-110871000D02*
X166243000Y-110236000D01*
X165608000Y-122936000D02*
X165608000Y-110871000D01*
X168148000Y-122936000D02*
X165608000Y-122936000D01*
X168148000Y-110236000D02*
X168148000Y-122936000D01*
X166243000Y-110236000D02*
X168148000Y-110236000D01*
X149904500Y-114020500D02*
X149904500Y-112420500D01*
X149904500Y-112420500D02*
X150704500Y-112420500D01*
X150704500Y-112420500D02*
X150704500Y-114020500D01*
X150704500Y-114020500D02*
X149904500Y-114020500D01*
X142703000Y-110691000D02*
X143703000Y-109691000D01*
X142703000Y-114591000D02*
X142703000Y-110691000D01*
X146603000Y-114591000D02*
X142703000Y-114591000D01*
X146603000Y-109691000D02*
X146603000Y-114591000D01*
X143703000Y-109691000D02*
X146603000Y-109691000D01*
X154648000Y-110382000D02*
X154648000Y-109582000D01*
X156248000Y-110382000D02*
X154648000Y-110382000D01*
X156248000Y-109582000D02*
X156248000Y-110382000D01*
X154648000Y-109582000D02*
X156248000Y-109582000D01*
X158192000Y-109582000D02*
X159792000Y-109582000D01*
X159792000Y-109582000D02*
X159792000Y-110382000D01*
X159792000Y-110382000D02*
X158192000Y-110382000D01*
X158192000Y-110382000D02*
X158192000Y-109582000D01*
X141228000Y-120588000D02*
X144268000Y-120588000D01*
X141228000Y-120588000D02*
X141228000Y-119188000D01*
X144268000Y-120588000D02*
X144268000Y-119188000D01*
X141228000Y-119188000D02*
X144268000Y-119188000D01*
X142098000Y-119738000D02*
X142498000Y-119738000D01*
X142298000Y-119738000D02*
X142298000Y-119488000D01*
X142298000Y-119738000D02*
X142098000Y-120038000D01*
X142098000Y-120038000D02*
X142498000Y-120038000D01*
X142498000Y-120038000D02*
X142298000Y-119738000D01*
X142298000Y-120038000D02*
X142298000Y-120288000D01*
X163430000Y-120434000D02*
X163430000Y-118834000D01*
X163430000Y-118834000D02*
X164230000Y-118834000D01*
X164230000Y-118834000D02*
X164230000Y-120434000D01*
X164230000Y-120434000D02*
X163430000Y-120434000D01*
X152205500Y-119699000D02*
X152205500Y-118299000D01*
X149165500Y-118299000D02*
X152205500Y-118299000D01*
X149735500Y-119699000D02*
X149165500Y-119149000D01*
X149165500Y-119149000D02*
X149165500Y-118299000D01*
X149735500Y-119699000D02*
X152185500Y-119699000D01*
D11*
X154835500Y-112927000D02*
X155835500Y-111927000D01*
X154835500Y-116927000D02*
X154835500Y-112927000D01*
X159235500Y-116927000D02*
X154835500Y-116927000D01*
X159235500Y-111927000D02*
X159235500Y-116927000D01*
X155835500Y-111927000D02*
X159235500Y-111927000D01*
D10*
X155467000Y-118770500D02*
X155467000Y-120370500D01*
X155467000Y-120370500D02*
X154667000Y-120370500D01*
X154667000Y-120370500D02*
X154667000Y-118770500D01*
X154667000Y-118770500D02*
X155467000Y-118770500D01*
X146445452Y-122050166D02*
X146445452Y-122278738D01*
X146445452Y-122164452D02*
X146045452Y-122164452D01*
X146102595Y-122202547D01*
X146140690Y-122240642D01*
X146159738Y-122278738D01*
X146178785Y-121707309D02*
X146445452Y-121707309D01*
X146178785Y-121878738D02*
X146388309Y-121878738D01*
X146426404Y-121859690D01*
X146445452Y-121821595D01*
X146445452Y-121764452D01*
X146426404Y-121726357D01*
X146407357Y-121707309D01*
X137245809Y-111603047D02*
X137264857Y-111584000D01*
X137302952Y-111564952D01*
X137398190Y-111564952D01*
X137436285Y-111584000D01*
X137455333Y-111603047D01*
X137474380Y-111641142D01*
X137474380Y-111679238D01*
X137455333Y-111736380D01*
X137226761Y-111964952D01*
X137474380Y-111964952D01*
X137626761Y-111603047D02*
X137645809Y-111584000D01*
X137683904Y-111564952D01*
X137779142Y-111564952D01*
X137817238Y-111584000D01*
X137836285Y-111603047D01*
X137855333Y-111641142D01*
X137855333Y-111679238D01*
X137836285Y-111736380D01*
X137607714Y-111964952D01*
X137855333Y-111964952D01*
X138102952Y-111564952D02*
X138141047Y-111564952D01*
X138179142Y-111584000D01*
X138198190Y-111603047D01*
X138217238Y-111641142D01*
X138236285Y-111717333D01*
X138236285Y-111812571D01*
X138217238Y-111888761D01*
X138198190Y-111926857D01*
X138179142Y-111945904D01*
X138141047Y-111964952D01*
X138102952Y-111964952D01*
X138064857Y-111945904D01*
X138045809Y-111926857D01*
X138026761Y-111888761D01*
X138007714Y-111812571D01*
X138007714Y-111717333D01*
X138026761Y-111641142D01*
X138045809Y-111603047D01*
X138064857Y-111584000D01*
X138102952Y-111564952D01*
X138407714Y-111698285D02*
X138407714Y-112098285D01*
X138407714Y-111717333D02*
X138445809Y-111698285D01*
X138522000Y-111698285D01*
X138560095Y-111717333D01*
X138579142Y-111736380D01*
X138598190Y-111774476D01*
X138598190Y-111888761D01*
X138579142Y-111926857D01*
X138560095Y-111945904D01*
X138522000Y-111964952D01*
X138445809Y-111964952D01*
X138407714Y-111945904D01*
X165382761Y-124138857D02*
X165363714Y-124157904D01*
X165306571Y-124176952D01*
X165268476Y-124176952D01*
X165211333Y-124157904D01*
X165173238Y-124119809D01*
X165154190Y-124081714D01*
X165135142Y-124005523D01*
X165135142Y-123948380D01*
X165154190Y-123872190D01*
X165173238Y-123834095D01*
X165211333Y-123796000D01*
X165268476Y-123776952D01*
X165306571Y-123776952D01*
X165363714Y-123796000D01*
X165382761Y-123815047D01*
X165611333Y-124176952D02*
X165573238Y-124157904D01*
X165554190Y-124138857D01*
X165535142Y-124100761D01*
X165535142Y-123986476D01*
X165554190Y-123948380D01*
X165573238Y-123929333D01*
X165611333Y-123910285D01*
X165668476Y-123910285D01*
X165706571Y-123929333D01*
X165725619Y-123948380D01*
X165744666Y-123986476D01*
X165744666Y-124100761D01*
X165725619Y-124138857D01*
X165706571Y-124157904D01*
X165668476Y-124176952D01*
X165611333Y-124176952D01*
X165916095Y-123910285D02*
X165916095Y-124176952D01*
X165916095Y-123948380D02*
X165935142Y-123929333D01*
X165973238Y-123910285D01*
X166030380Y-123910285D01*
X166068476Y-123929333D01*
X166087523Y-123967428D01*
X166087523Y-124176952D01*
X166278000Y-123910285D02*
X166278000Y-124176952D01*
X166278000Y-123948380D02*
X166297047Y-123929333D01*
X166335142Y-123910285D01*
X166392285Y-123910285D01*
X166430380Y-123929333D01*
X166449428Y-123967428D01*
X166449428Y-124176952D01*
X166544666Y-124215047D02*
X166849428Y-124215047D01*
X167020857Y-123776952D02*
X167058952Y-123776952D01*
X167097047Y-123796000D01*
X167116095Y-123815047D01*
X167135142Y-123853142D01*
X167154190Y-123929333D01*
X167154190Y-124024571D01*
X167135142Y-124100761D01*
X167116095Y-124138857D01*
X167097047Y-124157904D01*
X167058952Y-124176952D01*
X167020857Y-124176952D01*
X166982761Y-124157904D01*
X166963714Y-124138857D01*
X166944666Y-124100761D01*
X166925619Y-124024571D01*
X166925619Y-123929333D01*
X166944666Y-123853142D01*
X166963714Y-123815047D01*
X166982761Y-123796000D01*
X167020857Y-123776952D01*
X167535142Y-124176952D02*
X167306571Y-124176952D01*
X167420857Y-124176952D02*
X167420857Y-123776952D01*
X167382761Y-123834095D01*
X167344666Y-123872190D01*
X167306571Y-123891238D01*
X167668476Y-124176952D02*
X167878000Y-123910285D01*
X167668476Y-123910285D02*
X167878000Y-124176952D01*
X168106571Y-123776952D02*
X168144666Y-123776952D01*
X168182761Y-123796000D01*
X168201809Y-123815047D01*
X168220857Y-123853142D01*
X168239904Y-123929333D01*
X168239904Y-124024571D01*
X168220857Y-124100761D01*
X168201809Y-124138857D01*
X168182761Y-124157904D01*
X168144666Y-124176952D01*
X168106571Y-124176952D01*
X168068476Y-124157904D01*
X168049428Y-124138857D01*
X168030380Y-124100761D01*
X168011333Y-124024571D01*
X168011333Y-123929333D01*
X168030380Y-123853142D01*
X168049428Y-123815047D01*
X168068476Y-123796000D01*
X168106571Y-123776952D01*
X168601809Y-123776952D02*
X168411333Y-123776952D01*
X168392285Y-123967428D01*
X168411333Y-123948380D01*
X168449428Y-123929333D01*
X168544666Y-123929333D01*
X168582761Y-123948380D01*
X168601809Y-123967428D01*
X168620857Y-124005523D01*
X168620857Y-124100761D01*
X168601809Y-124138857D01*
X168582761Y-124157904D01*
X168544666Y-124176952D01*
X168449428Y-124176952D01*
X168411333Y-124157904D01*
X168392285Y-124138857D01*
X151985452Y-113458595D02*
X151985452Y-113687166D01*
X151985452Y-113572880D02*
X151585452Y-113572880D01*
X151642595Y-113610976D01*
X151680690Y-113649071D01*
X151699738Y-113687166D01*
X151585452Y-113210976D02*
X151585452Y-113172880D01*
X151604500Y-113134785D01*
X151623547Y-113115738D01*
X151661642Y-113096690D01*
X151737833Y-113077642D01*
X151833071Y-113077642D01*
X151909261Y-113096690D01*
X151947357Y-113115738D01*
X151966404Y-113134785D01*
X151985452Y-113172880D01*
X151985452Y-113210976D01*
X151966404Y-113249071D01*
X151947357Y-113268119D01*
X151909261Y-113287166D01*
X151833071Y-113306214D01*
X151737833Y-113306214D01*
X151661642Y-113287166D01*
X151623547Y-113268119D01*
X151604500Y-113249071D01*
X151585452Y-113210976D01*
X151985452Y-112906214D02*
X151585452Y-112906214D01*
X151833071Y-112868119D02*
X151985452Y-112753833D01*
X151718785Y-112753833D02*
X151871166Y-112906214D01*
X143453000Y-115421952D02*
X143681571Y-115421952D01*
X143567285Y-115821952D02*
X143567285Y-115421952D01*
X143929190Y-115421952D02*
X143929190Y-115707666D01*
X143910142Y-115764809D01*
X143872047Y-115802904D01*
X143814904Y-115821952D01*
X143776809Y-115821952D01*
X144100619Y-115707666D02*
X144291095Y-115707666D01*
X144062523Y-115821952D02*
X144195857Y-115421952D01*
X144329190Y-115821952D01*
X144672047Y-115821952D02*
X144443476Y-115821952D01*
X144557761Y-115821952D02*
X144557761Y-115421952D01*
X144519666Y-115479095D01*
X144481571Y-115517190D01*
X144443476Y-115536238D01*
X144919666Y-115421952D02*
X144957761Y-115421952D01*
X144995857Y-115441000D01*
X145014904Y-115460047D01*
X145033952Y-115498142D01*
X145053000Y-115574333D01*
X145053000Y-115669571D01*
X145033952Y-115745761D01*
X145014904Y-115783857D01*
X144995857Y-115802904D01*
X144957761Y-115821952D01*
X144919666Y-115821952D01*
X144881571Y-115802904D01*
X144862523Y-115783857D01*
X144843476Y-115745761D01*
X144824428Y-115669571D01*
X144824428Y-115574333D01*
X144843476Y-115498142D01*
X144862523Y-115460047D01*
X144881571Y-115441000D01*
X144919666Y-115421952D01*
X145205380Y-115460047D02*
X145224428Y-115441000D01*
X145262523Y-115421952D01*
X145357761Y-115421952D01*
X145395857Y-115441000D01*
X145414904Y-115460047D01*
X145433952Y-115498142D01*
X145433952Y-115536238D01*
X145414904Y-115593380D01*
X145186333Y-115821952D01*
X145433952Y-115821952D01*
X145662523Y-115593380D02*
X145624428Y-115574333D01*
X145605380Y-115555285D01*
X145586333Y-115517190D01*
X145586333Y-115498142D01*
X145605380Y-115460047D01*
X145624428Y-115441000D01*
X145662523Y-115421952D01*
X145738714Y-115421952D01*
X145776809Y-115441000D01*
X145795857Y-115460047D01*
X145814904Y-115498142D01*
X145814904Y-115517190D01*
X145795857Y-115555285D01*
X145776809Y-115574333D01*
X145738714Y-115593380D01*
X145662523Y-115593380D01*
X145624428Y-115612428D01*
X145605380Y-115631476D01*
X145586333Y-115669571D01*
X145586333Y-115745761D01*
X145605380Y-115783857D01*
X145624428Y-115802904D01*
X145662523Y-115821952D01*
X145738714Y-115821952D01*
X145776809Y-115802904D01*
X145795857Y-115783857D01*
X145814904Y-115745761D01*
X145814904Y-115669571D01*
X145795857Y-115631476D01*
X145776809Y-115612428D01*
X145738714Y-115593380D01*
X155000380Y-111662952D02*
X154771809Y-111662952D01*
X154886095Y-111662952D02*
X154886095Y-111262952D01*
X154848000Y-111320095D01*
X154809904Y-111358190D01*
X154771809Y-111377238D01*
X155248000Y-111262952D02*
X155286095Y-111262952D01*
X155324190Y-111282000D01*
X155343238Y-111301047D01*
X155362285Y-111339142D01*
X155381333Y-111415333D01*
X155381333Y-111510571D01*
X155362285Y-111586761D01*
X155343238Y-111624857D01*
X155324190Y-111643904D01*
X155286095Y-111662952D01*
X155248000Y-111662952D01*
X155209904Y-111643904D01*
X155190857Y-111624857D01*
X155171809Y-111586761D01*
X155152761Y-111510571D01*
X155152761Y-111415333D01*
X155171809Y-111339142D01*
X155190857Y-111301047D01*
X155209904Y-111282000D01*
X155248000Y-111262952D01*
X155628952Y-111262952D02*
X155667047Y-111262952D01*
X155705142Y-111282000D01*
X155724190Y-111301047D01*
X155743238Y-111339142D01*
X155762285Y-111415333D01*
X155762285Y-111510571D01*
X155743238Y-111586761D01*
X155724190Y-111624857D01*
X155705142Y-111643904D01*
X155667047Y-111662952D01*
X155628952Y-111662952D01*
X155590857Y-111643904D01*
X155571809Y-111624857D01*
X155552761Y-111586761D01*
X155533714Y-111510571D01*
X155533714Y-111415333D01*
X155552761Y-111339142D01*
X155571809Y-111301047D01*
X155590857Y-111282000D01*
X155628952Y-111262952D01*
X155933714Y-111396285D02*
X155933714Y-111662952D01*
X155933714Y-111434380D02*
X155952761Y-111415333D01*
X155990857Y-111396285D01*
X156048000Y-111396285D01*
X156086095Y-111415333D01*
X156105142Y-111453428D01*
X156105142Y-111662952D01*
X158734857Y-111662952D02*
X158506285Y-111662952D01*
X158620571Y-111662952D02*
X158620571Y-111262952D01*
X158582476Y-111320095D01*
X158544380Y-111358190D01*
X158506285Y-111377238D01*
X158982476Y-111262952D02*
X159020571Y-111262952D01*
X159058666Y-111282000D01*
X159077714Y-111301047D01*
X159096761Y-111339142D01*
X159115809Y-111415333D01*
X159115809Y-111510571D01*
X159096761Y-111586761D01*
X159077714Y-111624857D01*
X159058666Y-111643904D01*
X159020571Y-111662952D01*
X158982476Y-111662952D01*
X158944380Y-111643904D01*
X158925333Y-111624857D01*
X158906285Y-111586761D01*
X158887238Y-111510571D01*
X158887238Y-111415333D01*
X158906285Y-111339142D01*
X158925333Y-111301047D01*
X158944380Y-111282000D01*
X158982476Y-111262952D01*
X159287238Y-111396285D02*
X159287238Y-111662952D01*
X159287238Y-111434380D02*
X159306285Y-111415333D01*
X159344380Y-111396285D01*
X159401523Y-111396285D01*
X159439619Y-111415333D01*
X159458666Y-111453428D01*
X159458666Y-111662952D01*
X145409904Y-123059428D02*
X145428952Y-123002285D01*
X145428952Y-122907047D01*
X145409904Y-122868952D01*
X145390857Y-122849904D01*
X145352761Y-122830857D01*
X145314666Y-122830857D01*
X145276571Y-122849904D01*
X145257523Y-122868952D01*
X145238476Y-122907047D01*
X145219428Y-122983238D01*
X145200380Y-123021333D01*
X145181333Y-123040380D01*
X145143238Y-123059428D01*
X145105142Y-123059428D01*
X145067047Y-123040380D01*
X145048000Y-123021333D01*
X145028952Y-122983238D01*
X145028952Y-122888000D01*
X145048000Y-122830857D01*
X145428952Y-122659428D02*
X145028952Y-122659428D01*
X145314666Y-122526095D01*
X145028952Y-122392761D01*
X145428952Y-122392761D01*
X145219428Y-122068952D02*
X145238476Y-122011809D01*
X145257523Y-121992761D01*
X145295619Y-121973714D01*
X145352761Y-121973714D01*
X145390857Y-121992761D01*
X145409904Y-122011809D01*
X145428952Y-122049904D01*
X145428952Y-122202285D01*
X145028952Y-122202285D01*
X145028952Y-122068952D01*
X145048000Y-122030857D01*
X145067047Y-122011809D01*
X145105142Y-121992761D01*
X145143238Y-121992761D01*
X145181333Y-122011809D01*
X145200380Y-122030857D01*
X145219428Y-122068952D01*
X145219428Y-122202285D01*
X145428952Y-121802285D02*
X145028952Y-121802285D01*
X145028952Y-121707047D01*
X145048000Y-121649904D01*
X145086095Y-121611809D01*
X145124190Y-121592761D01*
X145200380Y-121573714D01*
X145257523Y-121573714D01*
X145333714Y-121592761D01*
X145371809Y-121611809D01*
X145409904Y-121649904D01*
X145428952Y-121707047D01*
X145428952Y-121802285D01*
X145428952Y-121383238D02*
X145428952Y-121307047D01*
X145409904Y-121268952D01*
X145390857Y-121249904D01*
X145333714Y-121211809D01*
X145257523Y-121192761D01*
X145105142Y-121192761D01*
X145067047Y-121211809D01*
X145048000Y-121230857D01*
X145028952Y-121268952D01*
X145028952Y-121345142D01*
X145048000Y-121383238D01*
X145067047Y-121402285D01*
X145105142Y-121421333D01*
X145200380Y-121421333D01*
X145238476Y-121402285D01*
X145257523Y-121383238D01*
X145276571Y-121345142D01*
X145276571Y-121268952D01*
X145257523Y-121230857D01*
X145238476Y-121211809D01*
X145200380Y-121192761D01*
X145428952Y-120811809D02*
X145428952Y-121040380D01*
X145428952Y-120926095D02*
X145028952Y-120926095D01*
X145086095Y-120964190D01*
X145124190Y-121002285D01*
X145143238Y-121040380D01*
X145162285Y-120468952D02*
X145428952Y-120468952D01*
X145009904Y-120564190D02*
X145295619Y-120659428D01*
X145295619Y-120411809D01*
X145219428Y-120259428D02*
X145219428Y-120126095D01*
X145428952Y-120068952D02*
X145428952Y-120259428D01*
X145028952Y-120259428D01*
X145028952Y-120068952D01*
X145028952Y-119726095D02*
X145028952Y-119802285D01*
X145048000Y-119840380D01*
X145067047Y-119859428D01*
X145124190Y-119897523D01*
X145200380Y-119916571D01*
X145352761Y-119916571D01*
X145390857Y-119897523D01*
X145409904Y-119878476D01*
X145428952Y-119840380D01*
X145428952Y-119764190D01*
X145409904Y-119726095D01*
X145390857Y-119707047D01*
X145352761Y-119688000D01*
X145257523Y-119688000D01*
X145219428Y-119707047D01*
X145200380Y-119726095D01*
X145181333Y-119764190D01*
X145181333Y-119840380D01*
X145200380Y-119878476D01*
X145219428Y-119897523D01*
X145257523Y-119916571D01*
X145028952Y-119554666D02*
X145028952Y-119307047D01*
X145181333Y-119440380D01*
X145181333Y-119383238D01*
X145200380Y-119345142D01*
X145219428Y-119326095D01*
X145257523Y-119307047D01*
X145352761Y-119307047D01*
X145390857Y-119326095D01*
X145409904Y-119345142D01*
X145428952Y-119383238D01*
X145428952Y-119497523D01*
X145409904Y-119535619D01*
X145390857Y-119554666D01*
X145067047Y-119154666D02*
X145048000Y-119135619D01*
X145028952Y-119097523D01*
X145028952Y-119002285D01*
X145048000Y-118964190D01*
X145067047Y-118945142D01*
X145105142Y-118926095D01*
X145143238Y-118926095D01*
X145200380Y-118945142D01*
X145428952Y-119173714D01*
X145428952Y-118926095D01*
X145028952Y-118792761D02*
X145028952Y-118526095D01*
X145428952Y-118697523D01*
X145428952Y-118373714D02*
X145028952Y-118373714D01*
X145219428Y-118373714D02*
X145219428Y-118145142D01*
X145428952Y-118145142D02*
X145028952Y-118145142D01*
X145028952Y-118011809D02*
X145028952Y-117783238D01*
X145428952Y-117897523D02*
X145028952Y-117897523D01*
X145409904Y-117668952D02*
X145428952Y-117611809D01*
X145428952Y-117516571D01*
X145409904Y-117478476D01*
X145390857Y-117459428D01*
X145352761Y-117440380D01*
X145314666Y-117440380D01*
X145276571Y-117459428D01*
X145257523Y-117478476D01*
X145238476Y-117516571D01*
X145219428Y-117592761D01*
X145200380Y-117630857D01*
X145181333Y-117649904D01*
X145143238Y-117668952D01*
X145105142Y-117668952D01*
X145067047Y-117649904D01*
X145048000Y-117630857D01*
X145028952Y-117592761D01*
X145028952Y-117497523D01*
X145048000Y-117440380D01*
X145314666Y-117288000D02*
X145314666Y-117097523D01*
X145428952Y-117326095D02*
X145028952Y-117192761D01*
X145428952Y-117059428D01*
X145428952Y-116716571D02*
X145428952Y-116945142D01*
X145428952Y-116830857D02*
X145028952Y-116830857D01*
X145086095Y-116868952D01*
X145124190Y-116907047D01*
X145143238Y-116945142D01*
X165510952Y-119872095D02*
X165510952Y-120100666D01*
X165510952Y-119986380D02*
X165110952Y-119986380D01*
X165168095Y-120024476D01*
X165206190Y-120062571D01*
X165225238Y-120100666D01*
X165110952Y-119624476D02*
X165110952Y-119586380D01*
X165130000Y-119548285D01*
X165149047Y-119529238D01*
X165187142Y-119510190D01*
X165263333Y-119491142D01*
X165358571Y-119491142D01*
X165434761Y-119510190D01*
X165472857Y-119529238D01*
X165491904Y-119548285D01*
X165510952Y-119586380D01*
X165510952Y-119624476D01*
X165491904Y-119662571D01*
X165472857Y-119681619D01*
X165434761Y-119700666D01*
X165358571Y-119719714D01*
X165263333Y-119719714D01*
X165187142Y-119700666D01*
X165149047Y-119681619D01*
X165130000Y-119662571D01*
X165110952Y-119624476D01*
X165510952Y-119319714D02*
X165110952Y-119319714D01*
X165358571Y-119281619D02*
X165510952Y-119167333D01*
X165244285Y-119167333D02*
X165396666Y-119319714D01*
X153366452Y-121132333D02*
X152966452Y-121132333D01*
X153366452Y-120903761D01*
X152966452Y-120903761D01*
X152966452Y-120770428D02*
X152966452Y-120541857D01*
X153366452Y-120656142D02*
X152966452Y-120656142D01*
X153366452Y-120179952D02*
X153175976Y-120313285D01*
X153366452Y-120408523D02*
X152966452Y-120408523D01*
X152966452Y-120256142D01*
X152985500Y-120218047D01*
X153004547Y-120199000D01*
X153042642Y-120179952D01*
X153099785Y-120179952D01*
X153137880Y-120199000D01*
X153156928Y-120218047D01*
X153175976Y-120256142D01*
X153175976Y-120408523D01*
X153099785Y-119837095D02*
X153366452Y-119837095D01*
X152947404Y-119932333D02*
X153233119Y-120027571D01*
X153233119Y-119779952D01*
X152966452Y-119551380D02*
X152966452Y-119513285D01*
X152985500Y-119475190D01*
X153004547Y-119456142D01*
X153042642Y-119437095D01*
X153118833Y-119418047D01*
X153214071Y-119418047D01*
X153290261Y-119437095D01*
X153328357Y-119456142D01*
X153347404Y-119475190D01*
X153366452Y-119513285D01*
X153366452Y-119551380D01*
X153347404Y-119589476D01*
X153328357Y-119608523D01*
X153290261Y-119627571D01*
X153214071Y-119646619D01*
X153118833Y-119646619D01*
X153042642Y-119627571D01*
X153004547Y-119608523D01*
X152985500Y-119589476D01*
X152966452Y-119551380D01*
X152966452Y-119170428D02*
X152966452Y-119132333D01*
X152985500Y-119094238D01*
X153004547Y-119075190D01*
X153042642Y-119056142D01*
X153118833Y-119037095D01*
X153214071Y-119037095D01*
X153290261Y-119056142D01*
X153328357Y-119075190D01*
X153347404Y-119094238D01*
X153366452Y-119132333D01*
X153366452Y-119170428D01*
X153347404Y-119208523D01*
X153328357Y-119227571D01*
X153290261Y-119246619D01*
X153214071Y-119265666D01*
X153118833Y-119265666D01*
X153042642Y-119246619D01*
X153004547Y-119227571D01*
X152985500Y-119208523D01*
X152966452Y-119170428D01*
X152966452Y-118903761D02*
X152966452Y-118656142D01*
X153118833Y-118789476D01*
X153118833Y-118732333D01*
X153137880Y-118694238D01*
X153156928Y-118675190D01*
X153195023Y-118656142D01*
X153290261Y-118656142D01*
X153328357Y-118675190D01*
X153347404Y-118694238D01*
X153366452Y-118732333D01*
X153366452Y-118846619D01*
X153347404Y-118884714D01*
X153328357Y-118903761D01*
X153366452Y-118484714D02*
X152966452Y-118484714D01*
X153366452Y-118256142D01*
X152966452Y-118256142D01*
X152966452Y-118122809D02*
X152966452Y-117894238D01*
X153366452Y-118008523D02*
X152966452Y-118008523D01*
X153366452Y-117551380D02*
X153366452Y-117779952D01*
X153366452Y-117665666D02*
X152966452Y-117665666D01*
X153023595Y-117703761D01*
X153061690Y-117741857D01*
X153080738Y-117779952D01*
X152985500Y-117170428D02*
X152966452Y-117208523D01*
X152966452Y-117265666D01*
X152985500Y-117322809D01*
X153023595Y-117360904D01*
X153061690Y-117379952D01*
X153137880Y-117399000D01*
X153195023Y-117399000D01*
X153271214Y-117379952D01*
X153309309Y-117360904D01*
X153347404Y-117322809D01*
X153366452Y-117265666D01*
X153366452Y-117227571D01*
X153347404Y-117170428D01*
X153328357Y-117151380D01*
X153195023Y-117151380D01*
X153195023Y-117227571D01*
D11*
X151202166Y-118429380D02*
X151202166Y-117429380D01*
X151583119Y-117429380D01*
X151678357Y-117477000D01*
X151725976Y-117524619D01*
X151773595Y-117619857D01*
X151773595Y-117762714D01*
X151725976Y-117857952D01*
X151678357Y-117905571D01*
X151583119Y-117953190D01*
X151202166Y-117953190D01*
X152202166Y-118429380D02*
X152202166Y-117429380D01*
X153249785Y-118334142D02*
X153202166Y-118381761D01*
X153059309Y-118429380D01*
X152964071Y-118429380D01*
X152821214Y-118381761D01*
X152725976Y-118286523D01*
X152678357Y-118191285D01*
X152630738Y-118000809D01*
X152630738Y-117857952D01*
X152678357Y-117667476D01*
X152725976Y-117572238D01*
X152821214Y-117477000D01*
X152964071Y-117429380D01*
X153059309Y-117429380D01*
X153202166Y-117477000D01*
X153249785Y-117524619D01*
X154202166Y-118429380D02*
X153630738Y-118429380D01*
X153916452Y-118429380D02*
X153916452Y-117429380D01*
X153821214Y-117572238D01*
X153725976Y-117667476D01*
X153630738Y-117715095D01*
X155059309Y-117429380D02*
X154868833Y-117429380D01*
X154773595Y-117477000D01*
X154725976Y-117524619D01*
X154630738Y-117667476D01*
X154583119Y-117857952D01*
X154583119Y-118238904D01*
X154630738Y-118334142D01*
X154678357Y-118381761D01*
X154773595Y-118429380D01*
X154964071Y-118429380D01*
X155059309Y-118381761D01*
X155106928Y-118334142D01*
X155154547Y-118238904D01*
X155154547Y-118000809D01*
X155106928Y-117905571D01*
X155059309Y-117857952D01*
X154964071Y-117810333D01*
X154773595Y-117810333D01*
X154678357Y-117857952D01*
X154630738Y-117905571D01*
X154583119Y-118000809D01*
X155868833Y-118810333D02*
X155821214Y-118762714D01*
X155725976Y-118619857D01*
X155678357Y-118524619D01*
X155630738Y-118381761D01*
X155583119Y-118143666D01*
X155583119Y-117953190D01*
X155630738Y-117715095D01*
X155678357Y-117572238D01*
X155725976Y-117477000D01*
X155821214Y-117334142D01*
X155868833Y-117286523D01*
X156725976Y-118429380D02*
X156249785Y-118429380D01*
X156249785Y-117429380D01*
X156964071Y-118810333D02*
X157011690Y-118762714D01*
X157106928Y-118619857D01*
X157154547Y-118524619D01*
X157202166Y-118381761D01*
X157249785Y-118143666D01*
X157249785Y-117953190D01*
X157202166Y-117715095D01*
X157154547Y-117572238D01*
X157106928Y-117477000D01*
X157011690Y-117334142D01*
X156964071Y-117286523D01*
X158059309Y-117905571D02*
X157725976Y-117905571D01*
X157725976Y-118429380D02*
X157725976Y-117429380D01*
X158202166Y-117429380D01*
X159106928Y-118429380D02*
X158535500Y-118429380D01*
X158821214Y-118429380D02*
X158821214Y-117429380D01*
X158725976Y-117572238D01*
X158630738Y-117667476D01*
X158535500Y-117715095D01*
X160011690Y-117429380D02*
X159535500Y-117429380D01*
X159487880Y-117905571D01*
X159535500Y-117857952D01*
X159630738Y-117810333D01*
X159868833Y-117810333D01*
X159964071Y-117857952D01*
X160011690Y-117905571D01*
X160059309Y-118000809D01*
X160059309Y-118238904D01*
X160011690Y-118334142D01*
X159964071Y-118381761D01*
X159868833Y-118429380D01*
X159630738Y-118429380D01*
X159535500Y-118381761D01*
X159487880Y-118334142D01*
X160392642Y-117429380D02*
X161011690Y-117429380D01*
X160678357Y-117810333D01*
X160821214Y-117810333D01*
X160916452Y-117857952D01*
X160964071Y-117905571D01*
X161011690Y-118000809D01*
X161011690Y-118238904D01*
X160964071Y-118334142D01*
X160916452Y-118381761D01*
X160821214Y-118429380D01*
X160535500Y-118429380D01*
X160440261Y-118381761D01*
X160392642Y-118334142D01*
X161392642Y-117524619D02*
X161440261Y-117477000D01*
X161535500Y-117429380D01*
X161773595Y-117429380D01*
X161868833Y-117477000D01*
X161916452Y-117524619D01*
X161964071Y-117619857D01*
X161964071Y-117715095D01*
X161916452Y-117857952D01*
X161345023Y-118429380D01*
X161964071Y-118429380D01*
X162297404Y-117429380D02*
X162916452Y-117429380D01*
X162583119Y-117810333D01*
X162725976Y-117810333D01*
X162821214Y-117857952D01*
X162868833Y-117905571D01*
X162916452Y-118000809D01*
X162916452Y-118238904D01*
X162868833Y-118334142D01*
X162821214Y-118381761D01*
X162725976Y-118429380D01*
X162440261Y-118429380D01*
X162345023Y-118381761D01*
X162297404Y-118334142D01*
X154019380Y-120165738D02*
X154019380Y-120737166D01*
X154019380Y-120451452D02*
X153019380Y-120451452D01*
X153162238Y-120546690D01*
X153257476Y-120641928D01*
X153305095Y-120737166D01*
X153019380Y-119546690D02*
X153019380Y-119451452D01*
X153067000Y-119356214D01*
X153114619Y-119308595D01*
X153209857Y-119260976D01*
X153400333Y-119213357D01*
X153638428Y-119213357D01*
X153828904Y-119260976D01*
X153924142Y-119308595D01*
X153971761Y-119356214D01*
X154019380Y-119451452D01*
X154019380Y-119546690D01*
X153971761Y-119641928D01*
X153924142Y-119689547D01*
X153828904Y-119737166D01*
X153638428Y-119784785D01*
X153400333Y-119784785D01*
X153209857Y-119737166D01*
X153114619Y-119689547D01*
X153067000Y-119641928D01*
X153019380Y-119546690D01*
X154019380Y-118784785D02*
X153019380Y-118784785D01*
X153638428Y-118689547D02*
X154019380Y-118403833D01*
X153352714Y-118403833D02*
X153733666Y-118784785D01*
M02*
