G04 #@! TF.GenerationSoftware,KiCad,Pcbnew,(2018-02-16 revision c95340fba)-makepkg*
G04 #@! TF.CreationDate,2018-05-26T17:23:00+02:00*
G04 #@! TF.ProjectId,lin_bb,6C696E5F62622E6B696361645F706362,rev?*
G04 #@! TF.SameCoordinates,PX7d54dd0PY6718300*
G04 #@! TF.FileFunction,Copper,L2,Bot,Signal*
G04 #@! TF.FilePolarity,Positive*
%FSLAX46Y46*%
G04 Gerber Fmt 4.6, Leading zero omitted, Abs format (unit mm)*
G04 Created by KiCad (PCBNEW (2018-02-16 revision c95340fba)-makepkg) date 05/26/18 17:23:00*
%MOMM*%
%LPD*%
G01*
G04 APERTURE LIST*
%ADD10O,3.960000X1.980000*%
%ADD11R,3.960000X1.980000*%
%ADD12C,2.540000*%
%ADD13C,0.800000*%
%ADD14C,0.500000*%
%ADD15C,0.250000*%
%ADD16C,3.000000*%
%ADD17C,0.254000*%
G04 APERTURE END LIST*
D10*
X6502400Y-12768600D03*
X6502400Y-7768600D03*
D11*
X6502400Y-2768600D03*
D10*
X41554400Y-3563600D03*
X41554400Y-8563600D03*
D11*
X41554400Y-13563600D03*
D12*
X31116400Y-14229600D03*
X16916400Y-8229600D03*
X31116400Y-2229600D03*
X18916400Y-14229600D03*
X18916400Y-2229600D03*
D13*
X22961600Y-11120750D03*
X41490900Y-11023600D03*
X41427400Y-6070600D03*
X21615400Y-2260600D03*
X14376400Y-8229600D03*
X13614400Y-14579600D03*
X26060400Y-4419600D03*
X27330400Y-14579600D03*
X21132800Y-5906610D03*
X12090400Y-3403600D03*
X17605709Y-5702592D03*
D14*
X22961600Y-11120750D02*
X17017345Y-11120750D01*
X23871550Y-11120750D02*
X22961600Y-11120750D01*
X27330400Y-14579600D02*
X23871550Y-11120750D01*
X17017345Y-11120750D02*
X13621995Y-14516100D01*
X13621995Y-14516100D02*
X13550900Y-14516100D01*
X13550900Y-14516100D02*
X13614400Y-14579600D01*
D15*
X13360400Y-14325600D02*
X13614400Y-14579600D01*
D16*
X41554400Y-3563600D02*
X32450400Y-3563600D01*
X32450400Y-3563600D02*
X31116400Y-2229600D01*
X41554400Y-8563600D02*
X17250400Y-8563600D01*
X17250400Y-8563600D02*
X16916400Y-8229600D01*
X31116400Y-14229600D02*
X40888400Y-14229600D01*
X40888400Y-14229600D02*
X41554400Y-13563600D01*
D15*
X14214679Y-3403600D02*
X17238681Y-6427602D01*
X17238681Y-6427602D02*
X20611808Y-6427602D01*
X20732801Y-6306609D02*
X21132800Y-5906610D01*
X20611808Y-6427602D02*
X20732801Y-6306609D01*
X12090400Y-3403600D02*
X14214679Y-3403600D01*
X18916400Y-2229600D02*
X18916400Y-4391901D01*
X18005708Y-5302593D02*
X17605709Y-5702592D01*
X18916400Y-4391901D02*
X18005708Y-5302593D01*
D17*
G36*
X17301419Y-1150504D02*
X17011400Y-1850672D01*
X17011400Y-2608528D01*
X17301419Y-3308696D01*
X17837304Y-3844581D01*
X18156401Y-3976755D01*
X18156401Y-4077098D01*
X17565908Y-4667592D01*
X17399835Y-4667592D01*
X17019429Y-4825161D01*
X16865235Y-4979355D01*
X14805010Y-2919130D01*
X14762608Y-2855671D01*
X14511216Y-2687696D01*
X14289531Y-2643600D01*
X14289526Y-2643600D01*
X14214679Y-2628712D01*
X14139832Y-2643600D01*
X12794111Y-2643600D01*
X12676680Y-2526169D01*
X12296274Y-2368600D01*
X11884526Y-2368600D01*
X11504120Y-2526169D01*
X11212969Y-2817320D01*
X11055400Y-3197726D01*
X11055400Y-3609474D01*
X11212969Y-3989880D01*
X11504120Y-4281031D01*
X11884526Y-4438600D01*
X12296274Y-4438600D01*
X12676680Y-4281031D01*
X12794111Y-4163600D01*
X13899878Y-4163600D01*
X16006267Y-6269989D01*
X15377151Y-6690351D01*
X14905274Y-7396565D01*
X14739574Y-8229600D01*
X14905274Y-9062635D01*
X15258038Y-9590583D01*
X15592036Y-9924581D01*
X15711151Y-10102849D01*
X16417364Y-10574726D01*
X17040121Y-10698600D01*
X17040125Y-10698600D01*
X17250399Y-10740426D01*
X17460674Y-10698600D01*
X41764679Y-10698600D01*
X42387436Y-10574726D01*
X43075890Y-10114715D01*
X43178443Y-10094316D01*
X43715959Y-9735159D01*
X44075116Y-9197643D01*
X44121400Y-8964955D01*
X44121400Y-12309138D01*
X43992209Y-12115791D01*
X43782165Y-11975443D01*
X43534400Y-11926160D01*
X42946694Y-11926160D01*
X42387435Y-11552474D01*
X41554399Y-11386774D01*
X40721365Y-11552474D01*
X40193417Y-11905238D01*
X40172495Y-11926160D01*
X39574400Y-11926160D01*
X39326635Y-11975443D01*
X39148305Y-12094600D01*
X30906121Y-12094600D01*
X30283364Y-12218474D01*
X29577151Y-12690351D01*
X29105274Y-13396564D01*
X28939573Y-14229600D01*
X29105274Y-15062636D01*
X29479430Y-15622600D01*
X20217477Y-15622600D01*
X20531381Y-15308696D01*
X20821400Y-14608528D01*
X20821400Y-13850672D01*
X20531381Y-13150504D01*
X19995496Y-12614619D01*
X19295328Y-12324600D01*
X18537472Y-12324600D01*
X17837304Y-12614619D01*
X17301419Y-13150504D01*
X17011400Y-13850672D01*
X17011400Y-14608528D01*
X17301419Y-15308696D01*
X17615323Y-15622600D01*
X4443400Y-15622600D01*
X4443400Y-14008687D01*
X4878357Y-14299316D01*
X5352355Y-14393600D01*
X7652445Y-14393600D01*
X8126443Y-14299316D01*
X8663959Y-13940159D01*
X9023116Y-13402643D01*
X9149235Y-12768600D01*
X9023116Y-12134557D01*
X8663959Y-11597041D01*
X8126443Y-11237884D01*
X7652445Y-11143600D01*
X5352355Y-11143600D01*
X4878357Y-11237884D01*
X4443400Y-11528513D01*
X4443400Y-9008687D01*
X4878357Y-9299316D01*
X5352355Y-9393600D01*
X7652445Y-9393600D01*
X8126443Y-9299316D01*
X8663959Y-8940159D01*
X9023116Y-8402643D01*
X9149235Y-7768600D01*
X9023116Y-7134557D01*
X8663959Y-6597041D01*
X8126443Y-6237884D01*
X7652445Y-6143600D01*
X5352355Y-6143600D01*
X4878357Y-6237884D01*
X4443400Y-6528513D01*
X4443400Y-4393600D01*
X6216650Y-4393600D01*
X6375400Y-4234850D01*
X6375400Y-2895600D01*
X6629400Y-2895600D01*
X6629400Y-4234850D01*
X6788150Y-4393600D01*
X8608710Y-4393600D01*
X8842099Y-4296927D01*
X9020727Y-4118298D01*
X9117400Y-3884909D01*
X9117400Y-3054350D01*
X8958650Y-2895600D01*
X6629400Y-2895600D01*
X6375400Y-2895600D01*
X6355400Y-2895600D01*
X6355400Y-2641600D01*
X6375400Y-2641600D01*
X6375400Y-1302350D01*
X6629400Y-1302350D01*
X6629400Y-2641600D01*
X8958650Y-2641600D01*
X9117400Y-2482850D01*
X9117400Y-1652291D01*
X9020727Y-1418902D01*
X8842099Y-1240273D01*
X8608710Y-1143600D01*
X6788150Y-1143600D01*
X6629400Y-1302350D01*
X6375400Y-1302350D01*
X6216650Y-1143600D01*
X4443400Y-1143600D01*
X4443400Y-836600D01*
X17615323Y-836600D01*
X17301419Y-1150504D01*
X17301419Y-1150504D01*
G37*
X17301419Y-1150504D02*
X17011400Y-1850672D01*
X17011400Y-2608528D01*
X17301419Y-3308696D01*
X17837304Y-3844581D01*
X18156401Y-3976755D01*
X18156401Y-4077098D01*
X17565908Y-4667592D01*
X17399835Y-4667592D01*
X17019429Y-4825161D01*
X16865235Y-4979355D01*
X14805010Y-2919130D01*
X14762608Y-2855671D01*
X14511216Y-2687696D01*
X14289531Y-2643600D01*
X14289526Y-2643600D01*
X14214679Y-2628712D01*
X14139832Y-2643600D01*
X12794111Y-2643600D01*
X12676680Y-2526169D01*
X12296274Y-2368600D01*
X11884526Y-2368600D01*
X11504120Y-2526169D01*
X11212969Y-2817320D01*
X11055400Y-3197726D01*
X11055400Y-3609474D01*
X11212969Y-3989880D01*
X11504120Y-4281031D01*
X11884526Y-4438600D01*
X12296274Y-4438600D01*
X12676680Y-4281031D01*
X12794111Y-4163600D01*
X13899878Y-4163600D01*
X16006267Y-6269989D01*
X15377151Y-6690351D01*
X14905274Y-7396565D01*
X14739574Y-8229600D01*
X14905274Y-9062635D01*
X15258038Y-9590583D01*
X15592036Y-9924581D01*
X15711151Y-10102849D01*
X16417364Y-10574726D01*
X17040121Y-10698600D01*
X17040125Y-10698600D01*
X17250399Y-10740426D01*
X17460674Y-10698600D01*
X41764679Y-10698600D01*
X42387436Y-10574726D01*
X43075890Y-10114715D01*
X43178443Y-10094316D01*
X43715959Y-9735159D01*
X44075116Y-9197643D01*
X44121400Y-8964955D01*
X44121400Y-12309138D01*
X43992209Y-12115791D01*
X43782165Y-11975443D01*
X43534400Y-11926160D01*
X42946694Y-11926160D01*
X42387435Y-11552474D01*
X41554399Y-11386774D01*
X40721365Y-11552474D01*
X40193417Y-11905238D01*
X40172495Y-11926160D01*
X39574400Y-11926160D01*
X39326635Y-11975443D01*
X39148305Y-12094600D01*
X30906121Y-12094600D01*
X30283364Y-12218474D01*
X29577151Y-12690351D01*
X29105274Y-13396564D01*
X28939573Y-14229600D01*
X29105274Y-15062636D01*
X29479430Y-15622600D01*
X20217477Y-15622600D01*
X20531381Y-15308696D01*
X20821400Y-14608528D01*
X20821400Y-13850672D01*
X20531381Y-13150504D01*
X19995496Y-12614619D01*
X19295328Y-12324600D01*
X18537472Y-12324600D01*
X17837304Y-12614619D01*
X17301419Y-13150504D01*
X17011400Y-13850672D01*
X17011400Y-14608528D01*
X17301419Y-15308696D01*
X17615323Y-15622600D01*
X4443400Y-15622600D01*
X4443400Y-14008687D01*
X4878357Y-14299316D01*
X5352355Y-14393600D01*
X7652445Y-14393600D01*
X8126443Y-14299316D01*
X8663959Y-13940159D01*
X9023116Y-13402643D01*
X9149235Y-12768600D01*
X9023116Y-12134557D01*
X8663959Y-11597041D01*
X8126443Y-11237884D01*
X7652445Y-11143600D01*
X5352355Y-11143600D01*
X4878357Y-11237884D01*
X4443400Y-11528513D01*
X4443400Y-9008687D01*
X4878357Y-9299316D01*
X5352355Y-9393600D01*
X7652445Y-9393600D01*
X8126443Y-9299316D01*
X8663959Y-8940159D01*
X9023116Y-8402643D01*
X9149235Y-7768600D01*
X9023116Y-7134557D01*
X8663959Y-6597041D01*
X8126443Y-6237884D01*
X7652445Y-6143600D01*
X5352355Y-6143600D01*
X4878357Y-6237884D01*
X4443400Y-6528513D01*
X4443400Y-4393600D01*
X6216650Y-4393600D01*
X6375400Y-4234850D01*
X6375400Y-2895600D01*
X6629400Y-2895600D01*
X6629400Y-4234850D01*
X6788150Y-4393600D01*
X8608710Y-4393600D01*
X8842099Y-4296927D01*
X9020727Y-4118298D01*
X9117400Y-3884909D01*
X9117400Y-3054350D01*
X8958650Y-2895600D01*
X6629400Y-2895600D01*
X6375400Y-2895600D01*
X6355400Y-2895600D01*
X6355400Y-2641600D01*
X6375400Y-2641600D01*
X6375400Y-1302350D01*
X6629400Y-1302350D01*
X6629400Y-2641600D01*
X8958650Y-2641600D01*
X9117400Y-2482850D01*
X9117400Y-1652291D01*
X9020727Y-1418902D01*
X8842099Y-1240273D01*
X8608710Y-1143600D01*
X6788150Y-1143600D01*
X6629400Y-1302350D01*
X6375400Y-1302350D01*
X6216650Y-1143600D01*
X4443400Y-1143600D01*
X4443400Y-836600D01*
X17615323Y-836600D01*
X17301419Y-1150504D01*
G36*
X29105274Y-1396565D02*
X28939574Y-2229600D01*
X29105274Y-3062635D01*
X29458038Y-3590583D01*
X30792036Y-4924581D01*
X30911151Y-5102849D01*
X31617364Y-5574726D01*
X32240121Y-5698600D01*
X32240125Y-5698600D01*
X32450400Y-5740426D01*
X32660675Y-5698600D01*
X41764679Y-5698600D01*
X42387436Y-5574726D01*
X43075890Y-5114715D01*
X43178443Y-5094316D01*
X43715959Y-4735159D01*
X44075116Y-4197643D01*
X44121401Y-3964954D01*
X44121401Y-8162245D01*
X44075116Y-7929557D01*
X43715959Y-7392041D01*
X43178443Y-7032884D01*
X43075890Y-7012485D01*
X42387436Y-6552474D01*
X41764679Y-6428600D01*
X22036861Y-6428600D01*
X22167800Y-6112484D01*
X22167800Y-5700736D01*
X22010231Y-5320330D01*
X21719080Y-5029179D01*
X21338674Y-4871610D01*
X20926926Y-4871610D01*
X20546520Y-5029179D01*
X20255369Y-5320330D01*
X20111525Y-5667602D01*
X18715500Y-5667602D01*
X19400873Y-4982230D01*
X19464329Y-4939830D01*
X19632304Y-4688438D01*
X19676400Y-4466753D01*
X19676400Y-4466748D01*
X19691288Y-4391901D01*
X19676400Y-4317054D01*
X19676400Y-3976755D01*
X19995496Y-3844581D01*
X20531381Y-3308696D01*
X20821400Y-2608528D01*
X20821400Y-1850672D01*
X20531381Y-1150504D01*
X20217477Y-836600D01*
X29479431Y-836600D01*
X29105274Y-1396565D01*
X29105274Y-1396565D01*
G37*
X29105274Y-1396565D02*
X28939574Y-2229600D01*
X29105274Y-3062635D01*
X29458038Y-3590583D01*
X30792036Y-4924581D01*
X30911151Y-5102849D01*
X31617364Y-5574726D01*
X32240121Y-5698600D01*
X32240125Y-5698600D01*
X32450400Y-5740426D01*
X32660675Y-5698600D01*
X41764679Y-5698600D01*
X42387436Y-5574726D01*
X43075890Y-5114715D01*
X43178443Y-5094316D01*
X43715959Y-4735159D01*
X44075116Y-4197643D01*
X44121401Y-3964954D01*
X44121401Y-8162245D01*
X44075116Y-7929557D01*
X43715959Y-7392041D01*
X43178443Y-7032884D01*
X43075890Y-7012485D01*
X42387436Y-6552474D01*
X41764679Y-6428600D01*
X22036861Y-6428600D01*
X22167800Y-6112484D01*
X22167800Y-5700736D01*
X22010231Y-5320330D01*
X21719080Y-5029179D01*
X21338674Y-4871610D01*
X20926926Y-4871610D01*
X20546520Y-5029179D01*
X20255369Y-5320330D01*
X20111525Y-5667602D01*
X18715500Y-5667602D01*
X19400873Y-4982230D01*
X19464329Y-4939830D01*
X19632304Y-4688438D01*
X19676400Y-4466753D01*
X19676400Y-4466748D01*
X19691288Y-4391901D01*
X19676400Y-4317054D01*
X19676400Y-3976755D01*
X19995496Y-3844581D01*
X20531381Y-3308696D01*
X20821400Y-2608528D01*
X20821400Y-1850672D01*
X20531381Y-1150504D01*
X20217477Y-836600D01*
X29479431Y-836600D01*
X29105274Y-1396565D01*
M02*
