G04 #@! TF.GenerationSoftware,KiCad,Pcbnew,(2018-02-16 revision c95340fba)-makepkg*
G04 #@! TF.CreationDate,2018-05-26T17:23:00+02:00*
G04 #@! TF.ProjectId,lin_bb,6C696E5F62622E6B696361645F706362,rev?*
G04 #@! TF.SameCoordinates,PX7d54dd0PY6718300*
G04 #@! TF.FileFunction,Legend,Bot*
G04 #@! TF.FilePolarity,Positive*
%FSLAX46Y46*%
G04 Gerber Fmt 4.6, Leading zero omitted, Abs format (unit mm)*
G04 Created by KiCad (PCBNEW (2018-02-16 revision c95340fba)-makepkg) date 05/26/18 17:23:00*
%MOMM*%
%LPD*%
G01*
G04 APERTURE LIST*
%ADD10C,0.300000*%
%ADD11C,0.120000*%
%ADD12C,0.150000*%
%ADD13C,0.100000*%
%ADD14O,4.360000X2.380000*%
%ADD15R,4.360000X2.380000*%
%ADD16C,2.940000*%
G04 APERTURE END LIST*
D10*
X14435828Y-15011885D02*
X12935828Y-14511885D01*
X14435828Y-14011885D01*
X13721542Y-13011885D02*
X13650114Y-12797600D01*
X13578685Y-12726171D01*
X13435828Y-12654742D01*
X13221542Y-12654742D01*
X13078685Y-12726171D01*
X13007257Y-12797600D01*
X12935828Y-12940457D01*
X12935828Y-13511885D01*
X14435828Y-13511885D01*
X14435828Y-13011885D01*
X14364400Y-12869028D01*
X14292971Y-12797600D01*
X14150114Y-12726171D01*
X14007257Y-12726171D01*
X13864400Y-12797600D01*
X13792971Y-12869028D01*
X13721542Y-13011885D01*
X13721542Y-13511885D01*
X13364400Y-12083314D02*
X13364400Y-11369028D01*
X12935828Y-12226171D02*
X14435828Y-11726171D01*
X12935828Y-11226171D01*
X14435828Y-10940457D02*
X14435828Y-10083314D01*
X12935828Y-10511885D02*
X14435828Y-10511885D01*
X12935828Y-8146171D02*
X12935828Y-8860457D01*
X14435828Y-8860457D01*
X12935828Y-7646171D02*
X14435828Y-7646171D01*
X12935828Y-6931885D02*
X14435828Y-6931885D01*
X12935828Y-6074742D01*
X14435828Y-6074742D01*
X14364400Y-4038457D02*
X14435828Y-4181314D01*
X14435828Y-4395600D01*
X14364400Y-4609885D01*
X14221542Y-4752742D01*
X14078685Y-4824171D01*
X13792971Y-4895600D01*
X13578685Y-4895600D01*
X13292971Y-4824171D01*
X13150114Y-4752742D01*
X13007257Y-4609885D01*
X12935828Y-4395600D01*
X12935828Y-4252742D01*
X13007257Y-4038457D01*
X13078685Y-3967028D01*
X13578685Y-3967028D01*
X13578685Y-4252742D01*
X12935828Y-3324171D02*
X14435828Y-3324171D01*
X12935828Y-2467028D01*
X14435828Y-2467028D01*
X12935828Y-1752742D02*
X14435828Y-1752742D01*
X14435828Y-1395600D01*
X14364400Y-1181314D01*
X14221542Y-1038457D01*
X14078685Y-967028D01*
X13792971Y-895600D01*
X13578685Y-895600D01*
X13292971Y-967028D01*
X13150114Y-1038457D01*
X13007257Y-1181314D01*
X12935828Y-1395600D01*
X12935828Y-1752742D01*
D11*
X202400Y-16018600D02*
X202400Y-118600D01*
X5252400Y-16018600D02*
X202400Y-16018600D01*
X5002400Y-15518600D02*
X5252400Y-16018600D01*
X10402400Y-15518600D02*
X5002400Y-15518600D01*
X10152400Y-16018600D02*
X10402400Y-15518600D01*
X12152400Y-16018600D02*
X10152400Y-16018600D01*
X11852400Y-15518600D02*
X12152400Y-16018600D01*
X12802400Y-15518600D02*
X11852400Y-15518600D01*
X12802400Y-118600D02*
X12802400Y-15518600D01*
X202400Y-118600D02*
X12802400Y-118600D01*
X47854400Y-313600D02*
X47854400Y-16213600D01*
X42804400Y-313600D02*
X47854400Y-313600D01*
X43054400Y-813600D02*
X42804400Y-313600D01*
X37654400Y-813600D02*
X43054400Y-813600D01*
X37904400Y-313600D02*
X37654400Y-813600D01*
X35904400Y-313600D02*
X37904400Y-313600D01*
X36204400Y-813600D02*
X35904400Y-313600D01*
X35254400Y-813600D02*
X36204400Y-813600D01*
X35254400Y-16213600D02*
X35254400Y-813600D01*
X47854400Y-16213600D02*
X35254400Y-16213600D01*
D12*
X34696400Y-16484600D02*
X14376400Y-16484600D01*
X34696400Y25400D02*
X34696400Y-16484600D01*
X14376400Y25400D02*
X34696400Y25400D01*
X14376400Y-16484600D02*
X14376400Y25400D01*
D13*
X13049233Y-15757552D02*
X13049233Y-16043266D01*
X13068280Y-16100409D01*
X13106376Y-16138504D01*
X13163519Y-16157552D01*
X13201614Y-16157552D01*
X12877804Y-15795647D02*
X12858757Y-15776600D01*
X12820661Y-15757552D01*
X12725423Y-15757552D01*
X12687328Y-15776600D01*
X12668280Y-15795647D01*
X12649233Y-15833742D01*
X12649233Y-15871838D01*
X12668280Y-15928980D01*
X12896852Y-16157552D01*
X12649233Y-16157552D01*
X35337733Y-263552D02*
X35337733Y-549266D01*
X35356780Y-606409D01*
X35394876Y-644504D01*
X35452019Y-663552D01*
X35490114Y-663552D01*
X35185352Y-263552D02*
X34937733Y-263552D01*
X35071066Y-415933D01*
X35013923Y-415933D01*
X34975828Y-434980D01*
X34956780Y-454028D01*
X34937733Y-492123D01*
X34937733Y-587361D01*
X34956780Y-625457D01*
X34975828Y-644504D01*
X35013923Y-663552D01*
X35128209Y-663552D01*
X35166304Y-644504D01*
X35185352Y-625457D01*
X26101638Y-9680552D02*
X26101638Y-9280552D01*
X25873066Y-9680552D02*
X26044495Y-9451980D01*
X25873066Y-9280552D02*
X26101638Y-9509123D01*
X25492114Y-9680552D02*
X25720685Y-9680552D01*
X25606400Y-9680552D02*
X25606400Y-9280552D01*
X25644495Y-9337695D01*
X25682590Y-9375790D01*
X25720685Y-9394838D01*
%LPC*%
D14*
X6502400Y-12768600D03*
X6502400Y-7768600D03*
D15*
X6502400Y-2768600D03*
D14*
X41554400Y-3563600D03*
X41554400Y-8563600D03*
D15*
X41554400Y-13563600D03*
D16*
X31116400Y-14229600D03*
X16916400Y-8229600D03*
X31116400Y-2229600D03*
X18916400Y-14229600D03*
X18916400Y-2229600D03*
M02*
