G04 #@! TF.GenerationSoftware,KiCad,Pcbnew,(2018-02-16 revision c95340fba)-makepkg*
G04 #@! TF.CreationDate,2018-04-16T21:08:27+02:00*
G04 #@! TF.ProjectId,lin_bb,6C696E5F62622E6B696361645F706362,rev?*
G04 #@! TF.SameCoordinates,Original*
G04 #@! TF.FileFunction,Other,User*
%FSLAX46Y46*%
G04 Gerber Fmt 4.6, Leading zero omitted, Abs format (unit mm)*
G04 Created by KiCad (PCBNEW (2018-02-16 revision c95340fba)-makepkg) date 04/16/18 21:08:27*
%MOMM*%
%LPD*%
G01*
G04 APERTURE LIST*
%ADD10C,0.050000*%
G04 APERTURE END LIST*
D10*
X147114500Y-123383500D02*
X147114500Y-120583500D01*
X147114500Y-123383500D02*
X148414500Y-123383500D01*
X148414500Y-120583500D02*
X147114500Y-120583500D01*
X148414500Y-120583500D02*
X148414500Y-123383500D01*
X139322000Y-113934000D02*
X136522000Y-113934000D01*
X139322000Y-113934000D02*
X139322000Y-112634000D01*
X136522000Y-112634000D02*
X136522000Y-113934000D01*
X136522000Y-112634000D02*
X139322000Y-112634000D01*
X168678000Y-109706000D02*
X165078000Y-109706000D01*
X168678000Y-123456000D02*
X168678000Y-109706000D01*
X165078000Y-123456000D02*
X168678000Y-123456000D01*
X165078000Y-109706000D02*
X165078000Y-123456000D01*
X151004500Y-111970500D02*
X151004500Y-114470500D01*
X151004500Y-111970500D02*
X149604500Y-111970500D01*
X149604500Y-114470500D02*
X151004500Y-114470500D01*
X149604500Y-114470500D02*
X149604500Y-111970500D01*
X140923000Y-114841000D02*
X148383000Y-114841000D01*
X140923000Y-109441000D02*
X148383000Y-109441000D01*
X148383000Y-109441000D02*
X148383000Y-114841000D01*
X140923000Y-109441000D02*
X140923000Y-114841000D01*
X154048000Y-109332000D02*
X156848000Y-109332000D01*
X154048000Y-109332000D02*
X154048000Y-110632000D01*
X156848000Y-110632000D02*
X156848000Y-109332000D01*
X156848000Y-110632000D02*
X154048000Y-110632000D01*
X160392000Y-110632000D02*
X157592000Y-110632000D01*
X160392000Y-110632000D02*
X160392000Y-109332000D01*
X157592000Y-109332000D02*
X157592000Y-110632000D01*
X157592000Y-109332000D02*
X160392000Y-109332000D01*
X144498000Y-121588000D02*
X140998000Y-121588000D01*
X144498000Y-118188000D02*
X144498000Y-121588000D01*
X140998000Y-118188000D02*
X144498000Y-118188000D01*
X140998000Y-121588000D02*
X140998000Y-118188000D01*
X164530000Y-118384000D02*
X164530000Y-120884000D01*
X164530000Y-118384000D02*
X163130000Y-118384000D01*
X163130000Y-120884000D02*
X164530000Y-120884000D01*
X163130000Y-120884000D02*
X163130000Y-118384000D01*
X152435500Y-120699000D02*
X148935500Y-120699000D01*
X152435500Y-117299000D02*
X152435500Y-120699000D01*
X148935500Y-117299000D02*
X152435500Y-117299000D01*
X148935500Y-120699000D02*
X148935500Y-117299000D01*
X153085500Y-117227000D02*
X160985500Y-117227000D01*
X153085500Y-111627000D02*
X160985500Y-111627000D01*
X160985500Y-111627000D02*
X160985500Y-117227000D01*
X153085500Y-111627000D02*
X153085500Y-117227000D01*
X154367000Y-120820500D02*
X154367000Y-118320500D01*
X154367000Y-120820500D02*
X155767000Y-120820500D01*
X155767000Y-118320500D02*
X154367000Y-118320500D01*
X155767000Y-118320500D02*
X155767000Y-120820500D01*
M02*
