M48
;DRILL file {KiCad (2018-02-16 revision c95340fba)-makepkg} date 05/26/18 17:20:39
;FORMAT={-:-/ absolute / metric / decimal}
FMAT,2
METRIC,TZ
T1C0.400
T2C1.320
T3C1.350
%
G90
G05
M71
T1
X12.09Y-3.404
X13.614Y-14.58
X14.376Y-8.23
X17.606Y-5.703
X21.133Y-5.907
X21.615Y-2.261
X22.962Y-11.121
X26.06Y-4.42
X27.33Y-14.58
X41.427Y-6.071
X41.491Y-11.024
T2
X41.554Y-3.564
X41.554Y-8.564
X41.554Y-13.564
X6.502Y-2.769
X6.502Y-7.769
X6.502Y-12.769
T3
X16.916Y-8.23
X18.916Y-2.23
X18.916Y-14.23
X31.116Y-2.23
X31.116Y-14.23
T0
M30
