M48
;DRILL file {KiCad (2018-02-16 revision c95340fba)-makepkg} date 04/16/18 21:08:30
;FORMAT={-:-/ absolute / inch / decimal}
FMAT,2
INCH,TZ
T1C0.0157
T2C0.0520
T3C0.0531
%
G90
G05
M72
T1
X5.65Y-4.39
X5.71Y-4.83
X5.74Y-4.58
X5.9825Y-4.4875
X6.025Y-4.345
X6.2Y-4.43
X6.25Y-4.83
X6.805Y-4.495
X6.8075Y-4.69
T2
X5.43Y-4.5619
X6.81Y-4.79
X5.43Y-4.365
X6.81Y-4.3963
X6.81Y-4.5931
X5.43Y-4.7587
T3
X5.84Y-4.58
X5.9187Y-4.3438
X5.9187Y-4.8162
X6.3991Y-4.3438
X6.3991Y-4.8162
T0
M30
