G04 #@! TF.GenerationSoftware,KiCad,Pcbnew,(2018-02-16 revision c95340fba)-makepkg*
G04 #@! TF.CreationDate,2018-04-16T21:08:27+02:00*
G04 #@! TF.ProjectId,lin_bb,6C696E5F62622E6B696361645F706362,rev?*
G04 #@! TF.SameCoordinates,Original*
G04 #@! TF.FileFunction,Copper,L2,Bot,Signal*
G04 #@! TF.FilePolarity,Positive*
%FSLAX46Y46*%
G04 Gerber Fmt 4.6, Leading zero omitted, Abs format (unit mm)*
G04 Created by KiCad (PCBNEW (2018-02-16 revision c95340fba)-makepkg) date 04/16/18 21:08:27*
%MOMM*%
%LPD*%
G01*
G04 APERTURE LIST*
%ADD10O,3.960000X1.980000*%
%ADD11R,3.960000X1.980000*%
%ADD12C,2.540000*%
%ADD13C,0.800000*%
%ADD14C,0.500000*%
%ADD15C,0.250000*%
%ADD16C,3.000000*%
%ADD17C,0.254000*%
G04 APERTURE END LIST*
D10*
X137922000Y-120871000D03*
X137922000Y-115871000D03*
D11*
X137922000Y-110871000D03*
D10*
X172974000Y-111666000D03*
X172974000Y-116666000D03*
D11*
X172974000Y-121666000D03*
D12*
X162536000Y-122332000D03*
X148336000Y-116332000D03*
X162536000Y-110332000D03*
X150336000Y-122332000D03*
X150336000Y-110332000D03*
D13*
X172910500Y-119126000D03*
X172847000Y-114173000D03*
X153035000Y-110363000D03*
X145796000Y-116332000D03*
X145034000Y-122682000D03*
X157480000Y-112522000D03*
X158750000Y-122682000D03*
X151955500Y-113982500D03*
X143510000Y-111506000D03*
D14*
X155291150Y-119223150D02*
X148436945Y-119223150D01*
X158750000Y-122682000D02*
X155291150Y-119223150D01*
X148436945Y-119223150D02*
X145041595Y-122618500D01*
X145041595Y-122618500D02*
X144970500Y-122618500D01*
X144970500Y-122618500D02*
X145034000Y-122682000D01*
D15*
X144780000Y-122428000D02*
X145034000Y-122682000D01*
D16*
X172974000Y-111666000D02*
X163870000Y-111666000D01*
X163870000Y-111666000D02*
X162536000Y-110332000D01*
X172974000Y-116666000D02*
X148670000Y-116666000D01*
X148670000Y-116666000D02*
X148336000Y-116332000D01*
X162536000Y-122332000D02*
X172308000Y-122332000D01*
X172308000Y-122332000D02*
X172974000Y-121666000D01*
D15*
X146552185Y-113982500D02*
X151955500Y-113982500D01*
X143510000Y-111506000D02*
X144075685Y-111506000D01*
X144075685Y-111506000D02*
X146552185Y-113982500D01*
D17*
G36*
X149167828Y-108984223D02*
X150336000Y-110152395D01*
X151504172Y-108984223D01*
X151483976Y-108939000D01*
X160899031Y-108939000D01*
X160524874Y-109498965D01*
X160359174Y-110332000D01*
X160524874Y-111165035D01*
X160877638Y-111692983D01*
X162211636Y-113026981D01*
X162330751Y-113205249D01*
X163036964Y-113677126D01*
X163659721Y-113801000D01*
X163659725Y-113801000D01*
X163870000Y-113842826D01*
X164080275Y-113801000D01*
X173184279Y-113801000D01*
X173807036Y-113677126D01*
X174495490Y-113217115D01*
X174598043Y-113196716D01*
X175135559Y-112837559D01*
X175494716Y-112300043D01*
X175541001Y-112067354D01*
X175541001Y-116264645D01*
X175494716Y-116031957D01*
X175135559Y-115494441D01*
X174598043Y-115135284D01*
X174495490Y-115114885D01*
X173807036Y-114654874D01*
X173184279Y-114531000D01*
X152848580Y-114531000D01*
X152990500Y-114188374D01*
X152990500Y-113776626D01*
X152832931Y-113396220D01*
X152541780Y-113105069D01*
X152161374Y-112947500D01*
X151749626Y-112947500D01*
X151369220Y-113105069D01*
X151251789Y-113222500D01*
X146866987Y-113222500D01*
X145324264Y-111679777D01*
X149167828Y-111679777D01*
X149299520Y-111974657D01*
X150007036Y-112246261D01*
X150764632Y-112226436D01*
X151372480Y-111974657D01*
X151504172Y-111679777D01*
X150336000Y-110511605D01*
X149167828Y-111679777D01*
X145324264Y-111679777D01*
X144666016Y-111021530D01*
X144623614Y-110958071D01*
X144372222Y-110790096D01*
X144229397Y-110761686D01*
X144096280Y-110628569D01*
X143715874Y-110471000D01*
X143304126Y-110471000D01*
X142923720Y-110628569D01*
X142632569Y-110919720D01*
X142475000Y-111300126D01*
X142475000Y-111711874D01*
X142632569Y-112092280D01*
X142923720Y-112383431D01*
X143304126Y-112541000D01*
X143715874Y-112541000D01*
X143942155Y-112447271D01*
X145961856Y-114466973D01*
X146004256Y-114530429D01*
X146255648Y-114698404D01*
X146477333Y-114742500D01*
X146477338Y-114742500D01*
X146552185Y-114757388D01*
X146627032Y-114742500D01*
X146871957Y-114742500D01*
X146796751Y-114792751D01*
X146324874Y-115498965D01*
X146159174Y-116332000D01*
X146324874Y-117165035D01*
X146677638Y-117692983D01*
X147011636Y-118026981D01*
X147130751Y-118205249D01*
X147836964Y-118677126D01*
X148459721Y-118801000D01*
X148459725Y-118801000D01*
X148669999Y-118842826D01*
X148880274Y-118801000D01*
X173184279Y-118801000D01*
X173807036Y-118677126D01*
X174495490Y-118217115D01*
X174598043Y-118196716D01*
X175135559Y-117837559D01*
X175494716Y-117300043D01*
X175541000Y-117067355D01*
X175541000Y-120411538D01*
X175411809Y-120218191D01*
X175201765Y-120077843D01*
X174954000Y-120028560D01*
X174366294Y-120028560D01*
X173807035Y-119654874D01*
X172973999Y-119489174D01*
X172140965Y-119654874D01*
X171613017Y-120007638D01*
X171592095Y-120028560D01*
X170994000Y-120028560D01*
X170746235Y-120077843D01*
X170567905Y-120197000D01*
X162325721Y-120197000D01*
X161702964Y-120320874D01*
X160996751Y-120792751D01*
X160524874Y-121498964D01*
X160359173Y-122332000D01*
X160524874Y-123165036D01*
X160899030Y-123725000D01*
X151637077Y-123725000D01*
X151950981Y-123411096D01*
X152241000Y-122710928D01*
X152241000Y-121953072D01*
X151950981Y-121252904D01*
X151415096Y-120717019D01*
X150714928Y-120427000D01*
X149957072Y-120427000D01*
X149256904Y-120717019D01*
X148721019Y-121252904D01*
X148431000Y-121953072D01*
X148431000Y-122710928D01*
X148721019Y-123411096D01*
X149034923Y-123725000D01*
X135863000Y-123725000D01*
X135863000Y-122111087D01*
X136297957Y-122401716D01*
X136771955Y-122496000D01*
X139072045Y-122496000D01*
X139546043Y-122401716D01*
X140083559Y-122042559D01*
X140442716Y-121505043D01*
X140568835Y-120871000D01*
X140442716Y-120236957D01*
X140083559Y-119699441D01*
X139546043Y-119340284D01*
X139072045Y-119246000D01*
X136771955Y-119246000D01*
X136297957Y-119340284D01*
X135863000Y-119630913D01*
X135863000Y-117111087D01*
X136297957Y-117401716D01*
X136771955Y-117496000D01*
X139072045Y-117496000D01*
X139546043Y-117401716D01*
X140083559Y-117042559D01*
X140442716Y-116505043D01*
X140568835Y-115871000D01*
X140442716Y-115236957D01*
X140083559Y-114699441D01*
X139546043Y-114340284D01*
X139072045Y-114246000D01*
X136771955Y-114246000D01*
X136297957Y-114340284D01*
X135863000Y-114630913D01*
X135863000Y-112496000D01*
X137636250Y-112496000D01*
X137795000Y-112337250D01*
X137795000Y-110998000D01*
X138049000Y-110998000D01*
X138049000Y-112337250D01*
X138207750Y-112496000D01*
X140028310Y-112496000D01*
X140261699Y-112399327D01*
X140440327Y-112220698D01*
X140537000Y-111987309D01*
X140537000Y-111156750D01*
X140378250Y-110998000D01*
X138049000Y-110998000D01*
X137795000Y-110998000D01*
X137775000Y-110998000D01*
X137775000Y-110744000D01*
X137795000Y-110744000D01*
X137795000Y-109404750D01*
X138049000Y-109404750D01*
X138049000Y-110744000D01*
X140378250Y-110744000D01*
X140537000Y-110585250D01*
X140537000Y-110003036D01*
X148421739Y-110003036D01*
X148441564Y-110760632D01*
X148693343Y-111368480D01*
X148988223Y-111500172D01*
X150156395Y-110332000D01*
X150515605Y-110332000D01*
X151683777Y-111500172D01*
X151978657Y-111368480D01*
X152250261Y-110660964D01*
X152230436Y-109903368D01*
X151978657Y-109295520D01*
X151683777Y-109163828D01*
X150515605Y-110332000D01*
X150156395Y-110332000D01*
X148988223Y-109163828D01*
X148693343Y-109295520D01*
X148421739Y-110003036D01*
X140537000Y-110003036D01*
X140537000Y-109754691D01*
X140440327Y-109521302D01*
X140261699Y-109342673D01*
X140028310Y-109246000D01*
X138207750Y-109246000D01*
X138049000Y-109404750D01*
X137795000Y-109404750D01*
X137636250Y-109246000D01*
X135863000Y-109246000D01*
X135863000Y-108939000D01*
X149188024Y-108939000D01*
X149167828Y-108984223D01*
X149167828Y-108984223D01*
G37*
X149167828Y-108984223D02*
X150336000Y-110152395D01*
X151504172Y-108984223D01*
X151483976Y-108939000D01*
X160899031Y-108939000D01*
X160524874Y-109498965D01*
X160359174Y-110332000D01*
X160524874Y-111165035D01*
X160877638Y-111692983D01*
X162211636Y-113026981D01*
X162330751Y-113205249D01*
X163036964Y-113677126D01*
X163659721Y-113801000D01*
X163659725Y-113801000D01*
X163870000Y-113842826D01*
X164080275Y-113801000D01*
X173184279Y-113801000D01*
X173807036Y-113677126D01*
X174495490Y-113217115D01*
X174598043Y-113196716D01*
X175135559Y-112837559D01*
X175494716Y-112300043D01*
X175541001Y-112067354D01*
X175541001Y-116264645D01*
X175494716Y-116031957D01*
X175135559Y-115494441D01*
X174598043Y-115135284D01*
X174495490Y-115114885D01*
X173807036Y-114654874D01*
X173184279Y-114531000D01*
X152848580Y-114531000D01*
X152990500Y-114188374D01*
X152990500Y-113776626D01*
X152832931Y-113396220D01*
X152541780Y-113105069D01*
X152161374Y-112947500D01*
X151749626Y-112947500D01*
X151369220Y-113105069D01*
X151251789Y-113222500D01*
X146866987Y-113222500D01*
X145324264Y-111679777D01*
X149167828Y-111679777D01*
X149299520Y-111974657D01*
X150007036Y-112246261D01*
X150764632Y-112226436D01*
X151372480Y-111974657D01*
X151504172Y-111679777D01*
X150336000Y-110511605D01*
X149167828Y-111679777D01*
X145324264Y-111679777D01*
X144666016Y-111021530D01*
X144623614Y-110958071D01*
X144372222Y-110790096D01*
X144229397Y-110761686D01*
X144096280Y-110628569D01*
X143715874Y-110471000D01*
X143304126Y-110471000D01*
X142923720Y-110628569D01*
X142632569Y-110919720D01*
X142475000Y-111300126D01*
X142475000Y-111711874D01*
X142632569Y-112092280D01*
X142923720Y-112383431D01*
X143304126Y-112541000D01*
X143715874Y-112541000D01*
X143942155Y-112447271D01*
X145961856Y-114466973D01*
X146004256Y-114530429D01*
X146255648Y-114698404D01*
X146477333Y-114742500D01*
X146477338Y-114742500D01*
X146552185Y-114757388D01*
X146627032Y-114742500D01*
X146871957Y-114742500D01*
X146796751Y-114792751D01*
X146324874Y-115498965D01*
X146159174Y-116332000D01*
X146324874Y-117165035D01*
X146677638Y-117692983D01*
X147011636Y-118026981D01*
X147130751Y-118205249D01*
X147836964Y-118677126D01*
X148459721Y-118801000D01*
X148459725Y-118801000D01*
X148669999Y-118842826D01*
X148880274Y-118801000D01*
X173184279Y-118801000D01*
X173807036Y-118677126D01*
X174495490Y-118217115D01*
X174598043Y-118196716D01*
X175135559Y-117837559D01*
X175494716Y-117300043D01*
X175541000Y-117067355D01*
X175541000Y-120411538D01*
X175411809Y-120218191D01*
X175201765Y-120077843D01*
X174954000Y-120028560D01*
X174366294Y-120028560D01*
X173807035Y-119654874D01*
X172973999Y-119489174D01*
X172140965Y-119654874D01*
X171613017Y-120007638D01*
X171592095Y-120028560D01*
X170994000Y-120028560D01*
X170746235Y-120077843D01*
X170567905Y-120197000D01*
X162325721Y-120197000D01*
X161702964Y-120320874D01*
X160996751Y-120792751D01*
X160524874Y-121498964D01*
X160359173Y-122332000D01*
X160524874Y-123165036D01*
X160899030Y-123725000D01*
X151637077Y-123725000D01*
X151950981Y-123411096D01*
X152241000Y-122710928D01*
X152241000Y-121953072D01*
X151950981Y-121252904D01*
X151415096Y-120717019D01*
X150714928Y-120427000D01*
X149957072Y-120427000D01*
X149256904Y-120717019D01*
X148721019Y-121252904D01*
X148431000Y-121953072D01*
X148431000Y-122710928D01*
X148721019Y-123411096D01*
X149034923Y-123725000D01*
X135863000Y-123725000D01*
X135863000Y-122111087D01*
X136297957Y-122401716D01*
X136771955Y-122496000D01*
X139072045Y-122496000D01*
X139546043Y-122401716D01*
X140083559Y-122042559D01*
X140442716Y-121505043D01*
X140568835Y-120871000D01*
X140442716Y-120236957D01*
X140083559Y-119699441D01*
X139546043Y-119340284D01*
X139072045Y-119246000D01*
X136771955Y-119246000D01*
X136297957Y-119340284D01*
X135863000Y-119630913D01*
X135863000Y-117111087D01*
X136297957Y-117401716D01*
X136771955Y-117496000D01*
X139072045Y-117496000D01*
X139546043Y-117401716D01*
X140083559Y-117042559D01*
X140442716Y-116505043D01*
X140568835Y-115871000D01*
X140442716Y-115236957D01*
X140083559Y-114699441D01*
X139546043Y-114340284D01*
X139072045Y-114246000D01*
X136771955Y-114246000D01*
X136297957Y-114340284D01*
X135863000Y-114630913D01*
X135863000Y-112496000D01*
X137636250Y-112496000D01*
X137795000Y-112337250D01*
X137795000Y-110998000D01*
X138049000Y-110998000D01*
X138049000Y-112337250D01*
X138207750Y-112496000D01*
X140028310Y-112496000D01*
X140261699Y-112399327D01*
X140440327Y-112220698D01*
X140537000Y-111987309D01*
X140537000Y-111156750D01*
X140378250Y-110998000D01*
X138049000Y-110998000D01*
X137795000Y-110998000D01*
X137775000Y-110998000D01*
X137775000Y-110744000D01*
X137795000Y-110744000D01*
X137795000Y-109404750D01*
X138049000Y-109404750D01*
X138049000Y-110744000D01*
X140378250Y-110744000D01*
X140537000Y-110585250D01*
X140537000Y-110003036D01*
X148421739Y-110003036D01*
X148441564Y-110760632D01*
X148693343Y-111368480D01*
X148988223Y-111500172D01*
X150156395Y-110332000D01*
X150515605Y-110332000D01*
X151683777Y-111500172D01*
X151978657Y-111368480D01*
X152250261Y-110660964D01*
X152230436Y-109903368D01*
X151978657Y-109295520D01*
X151683777Y-109163828D01*
X150515605Y-110332000D01*
X150156395Y-110332000D01*
X148988223Y-109163828D01*
X148693343Y-109295520D01*
X148421739Y-110003036D01*
X140537000Y-110003036D01*
X140537000Y-109754691D01*
X140440327Y-109521302D01*
X140261699Y-109342673D01*
X140028310Y-109246000D01*
X138207750Y-109246000D01*
X138049000Y-109404750D01*
X137795000Y-109404750D01*
X137636250Y-109246000D01*
X135863000Y-109246000D01*
X135863000Y-108939000D01*
X149188024Y-108939000D01*
X149167828Y-108984223D01*
M02*
