%MOIN*%
%OFA0B0*%
%FSLAX46Y46*%
%IPPOS*%
%LPD*%
%ADD10R,0.055118110236220472X0.064960629921259838*%
%ADD11R,0.064960629921259838X0.055118110236220472*%
%ADD12R,0.047244094488188976X0.0452755905511811*%
%ADD13O,0.082677165354330714X0.082677165354330714*%
%ADD14R,0.082677165354330714X0.082677165354330714*%
%ADD15O,0.17165354330708663X0.093700787401574809*%
%ADD16R,0.17165354330708663X0.093700787401574809*%
%ADD17R,0.051181102362204731X0.035433070866141732*%
%ADD18R,0.076771653543307089X0.03937007874015748*%
%ADD19R,0.047244094488188976X0.051181102362204731*%
%ADD20C,0.115748031496063*%
%ADD21R,0.072834645669291348X0.033464566929133861*%
%ADD22R,0.035433070866141732X0.051181102362204731*%
%ADD33R,0.055118110236220472X0.064960629921259838*%
%ADD34R,0.064960629921259838X0.055118110236220472*%
%ADD35R,0.047244094488188976X0.0452755905511811*%
%ADD36O,0.082677165354330714X0.082677165354330714*%
%ADD37R,0.082677165354330714X0.082677165354330714*%
%ADD38O,0.17165354330708663X0.093700787401574809*%
%ADD39R,0.17165354330708663X0.093700787401574809*%
%ADD40R,0.051181102362204731X0.035433070866141732*%
%ADD41R,0.076771653543307089X0.03937007874015748*%
%ADD42R,0.047244094488188976X0.051181102362204731*%
%ADD43C,0.115748031496063*%
%ADD44R,0.072834645669291348X0.033464566929133861*%
%ADD45R,0.035433070866141732X0.051181102362204731*%
%ADD56R,0.055118110236220472X0.064960629921259838*%
%ADD57R,0.064960629921259838X0.055118110236220472*%
%ADD58R,0.047244094488188976X0.0452755905511811*%
%ADD59O,0.082677165354330714X0.082677165354330714*%
%ADD60R,0.082677165354330714X0.082677165354330714*%
%ADD61O,0.17165354330708663X0.093700787401574809*%
%ADD62R,0.17165354330708663X0.093700787401574809*%
%ADD63R,0.051181102362204731X0.035433070866141732*%
%ADD64R,0.076771653543307089X0.03937007874015748*%
%ADD65R,0.047244094488188976X0.051181102362204731*%
%ADD66C,0.115748031496063*%
%ADD67R,0.072834645669291348X0.033464566929133861*%
%ADD68R,0.035433070866141732X0.051181102362204731*%
%ADD79R,0.055118110236220472X0.064960629921259838*%
%ADD80R,0.064960629921259838X0.055118110236220472*%
%ADD81R,0.047244094488188976X0.0452755905511811*%
%ADD82O,0.082677165354330714X0.082677165354330714*%
%ADD83R,0.082677165354330714X0.082677165354330714*%
%ADD84O,0.17165354330708663X0.093700787401574809*%
%ADD85R,0.17165354330708663X0.093700787401574809*%
%ADD86R,0.051181102362204731X0.035433070866141732*%
%ADD87R,0.076771653543307089X0.03937007874015748*%
%ADD88R,0.047244094488188976X0.051181102362204731*%
%ADD89C,0.115748031496063*%
%ADD90R,0.072834645669291348X0.033464566929133861*%
%ADD91R,0.035433070866141732X0.051181102362204731*%
%ADD102R,0.055118110236220472X0.064960629921259838*%
%ADD103R,0.064960629921259838X0.055118110236220472*%
%ADD104R,0.047244094488188976X0.0452755905511811*%
%ADD105O,0.082677165354330714X0.082677165354330714*%
%ADD106R,0.082677165354330714X0.082677165354330714*%
%ADD107O,0.17165354330708663X0.093700787401574809*%
%ADD108R,0.17165354330708663X0.093700787401574809*%
%ADD109R,0.051181102362204731X0.035433070866141732*%
%ADD110R,0.076771653543307089X0.03937007874015748*%
%ADD111R,0.047244094488188976X0.051181102362204731*%
%ADD112C,0.115748031496063*%
%ADD113R,0.072834645669291348X0.033464566929133861*%
%ADD114R,0.035433070866141732X0.051181102362204731*%
%ADD125R,0.055118110236220472X0.064960629921259838*%
%ADD126R,0.064960629921259838X0.055118110236220472*%
%ADD127R,0.047244094488188976X0.0452755905511811*%
%ADD128O,0.082677165354330714X0.082677165354330714*%
%ADD129R,0.082677165354330714X0.082677165354330714*%
%ADD130O,0.17165354330708663X0.093700787401574809*%
%ADD131R,0.17165354330708663X0.093700787401574809*%
%ADD132R,0.051181102362204731X0.035433070866141732*%
%ADD133R,0.076771653543307089X0.03937007874015748*%
%ADD134R,0.047244094488188976X0.051181102362204731*%
%ADD135C,0.115748031496063*%
%ADD136R,0.072834645669291348X0.033464566929133861*%
%ADD137R,0.035433070866141732X0.051181102362204731*%
%LPD*%
G01*
D10*
X0001592109Y0001402110D02*
X0002494740Y0001328110D03*
X0002573480Y0001328110D03*
D11*
X0002235610Y0000894979D03*
X0002235610Y0000816240D03*
D12*
X0001877637Y0001198110D03*
X0001818582Y0001198110D03*
D17*
X0002370110Y0001227637D03*
X0002370110Y0001168582D03*
D18*
X0002219409Y0001318110D03*
X0002219409Y0001268110D03*
X0002219409Y0001218110D03*
X0002219409Y0001168110D03*
X0002006811Y0001168110D03*
X0002006811Y0001218110D03*
X0002006811Y0001268110D03*
X0002006811Y0001318110D03*
D12*
X0002707165Y0001328110D03*
X0002648110Y0001328110D03*
D19*
X0002038110Y0000977480D03*
X0002075511Y0000898740D03*
X0002000708Y0000898740D03*
D19*
X0002380110Y0001035480D03*
X0002417511Y0000956740D03*
X0002342708Y0000956740D03*
D21*
X0002716752Y0001229881D03*
X0002716752Y0001204291D03*
X0002716752Y0001178700D03*
X0002716752Y0001153110D03*
X0002716752Y0001127519D03*
X0002716752Y0001101929D03*
X0002716752Y0001076338D03*
X0002484468Y0001076338D03*
X0002484468Y0001101929D03*
X0002484468Y0001127519D03*
X0002484468Y0001153110D03*
X0002484468Y0001178700D03*
X0002484468Y0001204291D03*
X0002484468Y0001229881D03*
D22*
X0002625637Y0000976110D03*
X0002566582Y0000976110D03*
D19*
X0002536110Y0000814739D03*
X0002498708Y0000893480D03*
X0002573511Y0000893480D03*
G01*
D33*
X0001592109Y0002160220D02*
X0002494740Y0002086220D03*
X0002573480Y0002086220D03*
D34*
X0002235610Y0001653090D03*
X0002235610Y0001574350D03*
D35*
X0001877637Y0001956220D03*
X0001818582Y0001956220D03*
D40*
X0002370110Y0001985747D03*
X0002370110Y0001926692D03*
D41*
X0002219409Y0002076220D03*
X0002219409Y0002026220D03*
X0002219409Y0001976220D03*
X0002219409Y0001926220D03*
X0002006811Y0001926220D03*
X0002006811Y0001976220D03*
X0002006811Y0002026220D03*
X0002006811Y0002076220D03*
D35*
X0002707165Y0002086220D03*
X0002648110Y0002086220D03*
D42*
X0002038110Y0001735590D03*
X0002075511Y0001656849D03*
X0002000708Y0001656849D03*
D42*
X0002380110Y0001793589D03*
X0002417511Y0001714850D03*
X0002342708Y0001714850D03*
D44*
X0002716752Y0001987992D03*
X0002716752Y0001962401D03*
X0002716752Y0001936810D03*
X0002716752Y0001911220D03*
X0002716752Y0001885629D03*
X0002716752Y0001860038D03*
X0002716752Y0001834448D03*
X0002484468Y0001834448D03*
X0002484468Y0001860038D03*
X0002484468Y0001885629D03*
X0002484468Y0001911220D03*
X0002484468Y0001936810D03*
X0002484468Y0001962401D03*
X0002484468Y0001987992D03*
D45*
X0002625637Y0001734220D03*
X0002566582Y0001734220D03*
D42*
X0002536110Y0001572850D03*
X0002498708Y0001651590D03*
X0002573511Y0001651590D03*
G04 next file*
%LPD*%
G01*
D56*
X-0000146000Y0000643999D02*
X0000756629Y0000569999D03*
X0000835370Y0000569999D03*
D57*
X0000497499Y0000136870D03*
X0000497499Y0000058129D03*
D58*
X0000139527Y0000439999D03*
X0000080471Y0000439999D03*
X0001249999Y0000509999D03*
D63*
X0000631999Y0000469527D03*
X0000631999Y0000410472D03*
D64*
X0000481299Y0000559999D03*
X0000481299Y0000509999D03*
X0000481299Y0000459999D03*
X0000481299Y0000409999D03*
X0000268700Y0000409999D03*
X0000268700Y0000459999D03*
X0000268700Y0000509999D03*
X0000268700Y0000559999D03*
D58*
X0000969055Y0000569999D03*
X0000909999Y0000569999D03*
D65*
X0000299999Y0000219370D03*
X0000337401Y0000140629D03*
X0000262598Y0000140629D03*
D65*
X0000641998Y0000277370D03*
X0000679400Y0000198629D03*
X0000604598Y0000198629D03*
D67*
X0000978641Y0000471770D03*
X0000978641Y0000446181D03*
X0000978641Y0000420590D03*
X0000978641Y0000394999D03*
X0000978641Y0000369409D03*
X0000978641Y0000343818D03*
X0000978641Y0000318228D03*
X0000746358Y0000318228D03*
X0000746358Y0000343818D03*
X0000746358Y0000369409D03*
X0000746358Y0000394999D03*
X0000746358Y0000420590D03*
X0000746358Y0000446181D03*
X0000746358Y0000471770D03*
D68*
X0000887527Y0000217998D03*
X0000828472Y0000217998D03*
D65*
X0000797999Y0000056628D03*
X0000760598Y0000135370D03*
X0000835401Y0000135370D03*
G01*
D79*
X-0000146000Y0001402110D02*
X0000756629Y0001328110D03*
X0000835370Y0001328110D03*
D80*
X0000497499Y0000894979D03*
X0000497499Y0000816240D03*
D81*
X0000139527Y0001198110D03*
X0000080471Y0001198110D03*
D86*
X0000631999Y0001227637D03*
X0000631999Y0001168582D03*
D87*
X0000481299Y0001318110D03*
X0000481299Y0001268110D03*
X0000481299Y0001218110D03*
X0000481299Y0001168110D03*
X0000268700Y0001168110D03*
X0000268700Y0001218110D03*
X0000268700Y0001268110D03*
X0000268700Y0001318110D03*
D81*
X0000969055Y0001328110D03*
X0000909999Y0001328110D03*
D88*
X0000299999Y0000977480D03*
X0000337401Y0000898740D03*
X0000262598Y0000898740D03*
D88*
X0000641998Y0001035480D03*
X0000679400Y0000956740D03*
X0000604598Y0000956740D03*
D90*
X0000978641Y0001229881D03*
X0000978641Y0001204291D03*
X0000978641Y0001178700D03*
X0000978641Y0001153110D03*
X0000978641Y0001127519D03*
X0000978641Y0001101929D03*
X0000978641Y0001076338D03*
X0000746358Y0001076338D03*
X0000746358Y0001101929D03*
X0000746358Y0001127519D03*
X0000746358Y0001153110D03*
X0000746358Y0001178700D03*
X0000746358Y0001204291D03*
X0000746358Y0001229881D03*
D91*
X0000887527Y0000976110D03*
X0000828472Y0000976110D03*
D88*
X0000797999Y0000814739D03*
X0000760598Y0000893480D03*
X0000835401Y0000893480D03*
G04 next file*
G01*
D102*
X-0000146000Y0002160220D02*
X0000756629Y0002086220D03*
X0000835370Y0002086220D03*
D103*
X0000497499Y0001653090D03*
X0000497499Y0001574350D03*
D104*
X0000139527Y0001956220D03*
X0000080471Y0001956220D03*
D109*
X0000631999Y0001985747D03*
X0000631999Y0001926692D03*
D110*
X0000481299Y0002076220D03*
X0000481299Y0002026220D03*
X0000481299Y0001976220D03*
X0000481299Y0001926220D03*
X0000268700Y0001926220D03*
X0000268700Y0001976220D03*
X0000268700Y0002026220D03*
X0000268700Y0002076220D03*
D104*
X0000969055Y0002086220D03*
X0000909999Y0002086220D03*
D111*
X0000299999Y0001735590D03*
X0000337401Y0001656848D03*
X0000262598Y0001656848D03*
D111*
X0000641998Y0001793589D03*
X0000679400Y0001714850D03*
X0000604598Y0001714850D03*
D113*
X0000978641Y0001987992D03*
X0000978641Y0001962401D03*
X0000978641Y0001936810D03*
X0000978641Y0001911220D03*
X0000978641Y0001885629D03*
X0000978641Y0001860038D03*
X0000978641Y0001834448D03*
X0000746358Y0001834448D03*
X0000746358Y0001860038D03*
X0000746358Y0001885629D03*
X0000746358Y0001911220D03*
X0000746358Y0001936810D03*
X0000746358Y0001962401D03*
X0000746358Y0001987992D03*
D114*
X0000887527Y0001734220D03*
X0000828472Y0001734220D03*
D111*
X0000797999Y0001572850D03*
X0000760598Y0001651590D03*
X0000835401Y0001651590D03*
G04 next file*
G04 #@! TF.GenerationSoftware,KiCad,Pcbnew,(2018-02-16 revision c95340fba)-makepkg*
G04 #@! TF.CreationDate,2018-05-26T17:23:00+02:00*
G04 #@! TF.ProjectId,lin_bb,6C696E5F62622E6B696361645F706362,rev?*
G04 #@! TF.SameCoordinates,PX7d54dd0PY6718300*
G04 #@! TF.FileFunction,Soldermask,Top*
G04 #@! TF.FilePolarity,Negative*
G04 Gerber Fmt 4.6, Leading zero omitted, Abs format (unit mm)*
G04 Created by KiCad (PCBNEW (2018-02-16 revision c95340fba)-makepkg) date 05/26/18 17:23:00*
G01*
G04 APERTURE LIST*
G04 APERTURE END LIST*
D125*
X0001592109Y0000643999D02*
X0002494740Y0000569999D03*
X0002573480Y0000569999D03*
D126*
X0002235610Y0000136870D03*
X0002235610Y0000058129D03*
D127*
X0001877637Y0000439999D03*
X0001818582Y0000439999D03*
D132*
X0002370110Y0000469527D03*
X0002370110Y0000410472D03*
D133*
X0002219409Y0000559999D03*
X0002219409Y0000509999D03*
X0002219409Y0000459999D03*
X0002219409Y0000409999D03*
X0002006811Y0000409999D03*
X0002006811Y0000459999D03*
X0002006811Y0000509999D03*
X0002006811Y0000559999D03*
D127*
X0002707165Y0000569999D03*
X0002648110Y0000569999D03*
D134*
X0002038110Y0000219370D03*
X0002075511Y0000140629D03*
X0002000708Y0000140629D03*
D134*
X0002380110Y0000277370D03*
X0002417511Y0000198629D03*
X0002342708Y0000198629D03*
D136*
X0002716752Y0000471770D03*
X0002716752Y0000446181D03*
X0002716752Y0000420590D03*
X0002716752Y0000394999D03*
X0002716752Y0000369409D03*
X0002716752Y0000343818D03*
X0002716752Y0000318228D03*
X0002484468Y0000318228D03*
X0002484468Y0000343818D03*
X0002484468Y0000369409D03*
X0002484468Y0000394999D03*
X0002484468Y0000420590D03*
X0002484468Y0000446181D03*
X0002484468Y0000471770D03*
D137*
X0002625637Y0000217998D03*
X0002566582Y0000217998D03*
D134*
X0002536110Y0000056628D03*
X0002498708Y0000135370D03*
X0002573511Y0000135370D03*
M02*